<svg xmlns="http://www.w3.org/2000/svg" viewBox="0 0 56.98 50.23"><defs><style>.cls-1{fill:#0d3745;}.cls-2{fill:#d79a2b;}.cls-3{fill:#fff;}</style></defs><title>2Asset 6</title><g id="Layer_2" data-name="Layer 2"><g id="Layer_1-2" data-name="Layer 1"><path class="cls-1" d="M34.12,8V5.59a5.62,5.62,0,0,0-11.24,0V8A5.62,5.62,0,0,0,34.12,8ZM24.36,8V5.59a4.14,4.14,0,0,1,8.28,0V8a4.14,4.14,0,0,1-8.28,0Z"/><path class="cls-1" d="M18.7,34.8H37.56a.74.74,0,0,0,.74-.74h0v-1.7H51.44V20.91a5.55,5.55,0,0,0-5.2-5.53.86.86,0,0,0-.76.42,3.4,3.4,0,0,1-4.78.48,3.35,3.35,0,0,1-.58-.61.73.73,0,0,0-.61-.3,5.49,5.49,0,0,0-2.73.8A6.19,6.19,0,0,0,32.44,14a.9.9,0,0,0-.76.45,4,4,0,0,1-5.61.56,3.57,3.57,0,0,1-.68-.72.79.79,0,0,0-.62-.3,6.21,6.21,0,0,0-4.3,1.88l-.27.29a5.49,5.49,0,0,0-2.52-.79.86.86,0,0,0-.76.42,3.4,3.4,0,0,1-4.78.48,3.35,3.35,0,0,1-.58-.61.75.75,0,0,0-.62-.3,5.55,5.55,0,0,0-5.4,5.54V32.36H18.7ZM39.19,16.87a4.88,4.88,0,0,0,6.89.44,5.44,5.44,0,0,0,.41-.42,4.07,4.07,0,0,1,3.47,4v10H38.3V20.23a6.16,6.16,0,0,0-.69-2.83,4.05,4.05,0,0,1,1.58-.53ZM24.45,15.5a5.48,5.48,0,0,0,7.72.57,5.62,5.62,0,0,0,.54-.55,4.78,4.78,0,0,1,4.11,4.71V33.32H20.18V20.23A4.79,4.79,0,0,1,24.45,15.5ZM7,30.88v-10a4.08,4.08,0,0,1,3.61-4,4.87,4.87,0,0,0,6.88.43,4.16,4.16,0,0,0,.42-.42,4.19,4.19,0,0,1,1.45.51,6.21,6.21,0,0,0-.68,2.83V30.88Z"/><path class="cls-1" d="M47.78,10.24V8.1a5,5,0,1,0-10,0v2.14a5,5,0,1,0,10,0Zm-8.54,0V8.1a3.53,3.53,0,1,1,7.06,0h0v2.14a3.53,3.53,0,1,1-7.06,0Z"/><path class="cls-1" d="M19.22,10.24V8.1a5,5,0,0,0-10,0v2.14a5,5,0,1,0,10,0Zm-8.54,0V8.1a3.53,3.53,0,0,1,7.06,0h0v2.14a3.53,3.53,0,1,1-7.06,0Z"/><path class="cls-2" d="M24.45,15.5a5.48,5.48,0,0,0,7.72.57,5.62,5.62,0,0,0,.54-.55,4.78,4.78,0,0,1,4.11,4.71V33.32H20.18V20.23A4.79,4.79,0,0,1,24.45,15.5Z"/><path class="cls-1" d="M50.59,26.93l-.3.16a4,4,0,0,0-4.79-1.2h0l-.69.37a5.26,5.26,0,0,0-6-.54l-3.72,2h-5A7,7,0,0,1,27,27l-.68-.33A11.7,11.7,0,0,0,14.18,27.9l0,0L12.49,29.4a5.48,5.48,0,0,1-2.16,1.2L9.4,27.54A.74.74,0,0,0,8.69,27H.74a.74.74,0,0,0-.74.74.28.28,0,0,0,0,.09L2.66,49.58a.74.74,0,0,0,.73.65H15.32a.74.74,0,0,0,.74-.74.83.83,0,0,0,0-.22l-1.57-5.14,4.88-3.08a3,3,0,0,1,2.14-.28h.05l9.93,1.83a12.89,12.89,0,0,0,7.94-1.12l.09-.06L56.66,29.64a.74.74,0,0,0,.21-1A4.71,4.71,0,0,0,50.59,26.93Zm-4.41.28a2.53,2.53,0,0,1,2.76.61l-6.51,3.51-.38.2a6,6,0,0,0-.89-1.62ZM39.5,27h0a3.76,3.76,0,0,1,3.83,0L40,28.83a5.65,5.65,0,0,0-2.12-.95ZM4.05,48.75,1.58,28.49H8.14l6.18,20.26Zm34.64-8.57a11.4,11.4,0,0,1-7,1l-9.9-1.82a4.41,4.41,0,0,0-3.22.43l0,0L14,42.66,10.77,32a7.21,7.21,0,0,0,2.7-1.51l1.62-1.44a10.18,10.18,0,0,1,10.6-1l.68.32a8.54,8.54,0,0,0,3.74.86h6.61a4.17,4.17,0,0,1,4.09,3.39L36,32.41a28.34,28.34,0,0,0-5.21.24.73.73,0,0,0-.62.84.72.72,0,0,0,.82.62A27.21,27.21,0,0,1,36,33.89l5.63.25h0a.74.74,0,0,0,.74-.74c0-.12,0-.24,0-.35l.77-.41,8.16-4.4a3.22,3.22,0,0,1,3.89.62Z"/><path class="cls-3" d="M46.18,27.21a2.53,2.53,0,0,1,2.76.61l-6.51,3.51-.38.2a6,6,0,0,0-.89-1.62Z"/><path class="cls-3" d="M39.5,27h0a3.76,3.76,0,0,1,3.83,0L40,28.83a5.65,5.65,0,0,0-2.12-.95Z"/><polygon class="cls-3" points="4.05 48.75 1.58 28.5 8.14 28.5 14.32 48.75 4.05 48.75"/><path class="cls-3" d="M38.69,40.18a11.4,11.4,0,0,1-7,1l-9.9-1.82a4.41,4.41,0,0,0-3.22.43l0,0L14,42.66,10.77,32a7.21,7.21,0,0,0,2.7-1.51l1.62-1.44a10.18,10.18,0,0,1,10.6-1l.68.32a8.54,8.54,0,0,0,3.74.86h6.61a4.17,4.17,0,0,1,4.09,3.39L36,32.41a28.34,28.34,0,0,0-5.21.24.73.73,0,0,0-.62.84.72.72,0,0,0,.82.62A27.21,27.21,0,0,1,36,33.89l5.63.25h0a.74.74,0,0,0,.74-.74c0-.12,0-.24,0-.35l.77-.41,8.16-4.4a3.22,3.22,0,0,1,3.89.62Z"/><path class="cls-1" d="M6.4,45.69a2.33,2.33,0,1,0,2.33-2.33A2.33,2.33,0,0,0,6.4,45.69Zm2.33-.85a.85.85,0,1,1-.85.85.85.85,0,0,1,.85-.85Z"/></g></g></svg>