<svg xmlns="http://www.w3.org/2000/svg" viewBox="0 0 39.83 57.99"><defs><style>.cls-1{fill:#0d3745;}.cls-2{fill:#d79a2b;}</style></defs><title>2Asset 3</title><g id="Layer_2" data-name="Layer 2"><g id="Layer_1-2" data-name="Layer 1"><path class="cls-1" d="M19.91,53A14.89,14.89,0,1,0,5,38.08,14.91,14.91,0,0,0,19.91,53Zm0-28.09A13.2,13.2,0,1,1,6.72,38.08,13.21,13.21,0,0,1,19.91,24.88Z"/><path class="cls-1" d="M8,13.56l1.06-.85v5.4a.85.85,0,1,0,1.7,0v-5.4l1.07.85a.85.85,0,0,0,1.06-1.33l-2.45-2a.84.84,0,0,0-1.06,0l-2.45,2A.85.85,0,0,0,8,13.56Z"/><path class="cls-1" d="M26.81,13.42a.84.84,0,0,0,1.19.14l1.07-.85v5.4a.85.85,0,1,0,1.7,0v-5.4l1.06.85a.89.89,0,0,0,.53.18.86.86,0,0,0,.67-.32.85.85,0,0,0-.14-1.19l-2.44-2a.84.84,0,0,0-1.06,0l-2.45,2A.84.84,0,0,0,26.81,13.42Z"/><path class="cls-1" d="M19.91,18.16A19.91,19.91,0,0,0,5.42,51.73a.85.85,0,0,0,1.2,0,.84.84,0,0,0,0-1.2,18.25,18.25,0,1,1,2.44,2.16.85.85,0,0,0-1,1.36A19.92,19.92,0,1,0,19.91,18.16Z"/><path class="cls-1" d="M18.35,3.59,19.91,2l4.45,4.4h-.8A1.53,1.53,0,0,0,22,8v8.19a.85.85,0,1,0,1.7,0v-8h2.7a.84.84,0,0,0,.78-.52A.86.86,0,0,0,27,6.69L20.51.25a.84.84,0,0,0-1.19,0L17.15,2.39a.85.85,0,0,0,1.2,1.2Z"/><path class="cls-1" d="M13.4,8.14h2.7v8a.85.85,0,1,0,1.7,0V8a1.54,1.54,0,0,0-1.53-1.53h-.8L15.93,6a.84.84,0,0,0,0-1.2.85.85,0,0,0-1.2,0L12.8,6.69a.85.85,0,0,0,.6,1.45Z"/><circle class="cls-2" cx="19.91" cy="38.08" r="13.19"/><path class="cls-1" d="M24.79,32.58v-.95a.3.3,0,0,0-.29-.29h-10a.29.29,0,0,0-.29.29v.95a.28.28,0,0,0,.29.29h1.82a4.29,4.29,0,0,1,2,.56,2.5,2.5,0,0,1,.92,1.2H14.5a.28.28,0,0,0-.29.29v.95a.27.27,0,0,0,.29.28h4.82c0,.1,0,.22,0,.35-.44,1.56-1.72,2.32-3.93,2.32h-.64l-.2,0v.27l0,0c6.26,8.16,6.26,8.16,6.39,8.16h2.24V47L18,40.23a8.07,8.07,0,0,0,2.31-1,4.49,4.49,0,0,0,2-3.07H24.5a.27.27,0,0,0,.29-.28v-.95a.29.29,0,0,0-.29-.29H22.2l0-.17a3.67,3.67,0,0,0-.94-1.59H24.5A.28.28,0,0,0,24.79,32.58Z"/></g></g></svg>