<svg xmlns="http://www.w3.org/2000/svg" width="90.578" height="126.201" viewBox="0 0 90.578 126.201">
  <g id="DIGI" transform="translate(0)">
    <g id="Group_577" data-name="Group 577" transform="translate(24.606 51.174)">
      <path id="Path_363" data-name="Path 363" d="M-1388.274,964.828l-.309-.013-1.994-.151.162-1.983a22.592,22.592,0,0,0,.289-3.427,22.625,22.625,0,0,0-22.261-22.534l-2.127-.026.321-2.106a26.076,26.076,0,0,1,25.92-22.265,26.284,26.284,0,0,1,26.254,26.255,26.282,26.282,0,0,1-26.254,26.25m-21.857-31.691a26.36,26.36,0,0,1,23.709,26.117c0,.582-.024,1.178-.075,1.8a22.582,22.582,0,0,0,20.774-22.479,22.578,22.578,0,0,0-22.551-22.553,22.7,22.7,0,0,0-21.857,17.112" transform="translate(1415.585 -911.403)" fill="#013443"/>
      <path id="Path_364" data-name="Path 364" d="M-1387.787,966.169l-.348-.013-2.946-.224.238-2.906a22.532,22.532,0,0,0,.286-3.351,21.7,21.7,0,0,0-21.351-21.613l-3.187-.041.48-3.15a26.986,26.986,0,0,1,26.829-23.048A27.206,27.206,0,0,1-1360.611,939,27.2,27.2,0,0,1-1387.787,966.169Zm-1.31-1.931,1.329.09A25.358,25.358,0,0,0-1362.453,939a25.364,25.364,0,0,0-25.334-25.335,25.156,25.156,0,0,0-25.009,21.483l-.161,1.061,1.068.013a23.548,23.548,0,0,1,23.171,23.455,23.552,23.552,0,0,1-.3,3.567Zm2.081-1.758.09-1.079c.049-.6.072-1.169.072-1.725a25.548,25.548,0,0,0-22.879-25.2l-1.06-.1.258-1.035a23.719,23.719,0,0,1,22.748-17.812A23.5,23.5,0,0,1-1364.314,939a23.579,23.579,0,0,1-21.623,23.4Zm-21.454-29.71a27.42,27.42,0,0,1,23.457,26.905c0,.256,0,.514-.014.775A21.738,21.738,0,0,0-1366.155,939a21.656,21.656,0,0,0-21.631-21.632A21.873,21.873,0,0,0-1408.469,932.77Z" transform="translate(1415.096 -911.823)" fill="#013443"/>
    </g>
    <g id="Group_578" data-name="Group 578" transform="translate(37.945 83.139)">
      <path id="Path_365" data-name="Path 365" d="M-1370.784,931l-1.869-1.09-.788,2.021a22.394,22.394,0,0,1-19.228,14.332c.049-.626.072-1.223.072-1.8a25.953,25.953,0,0,0-2.964-12.1l-.938-1.806-1.632,1.057a24.253,24.253,0,0,1,3.684,12.846,24.35,24.35,0,0,1-.655,5.534l.344.028.311.015a26.062,26.062,0,0,0,23.557-14.7,22.631,22.631,0,0,1,9.489,18.353,22.29,22.29,0,0,1-2.175,9.607,12.165,12.165,0,0,1-8.782,3.712h-29.773a22.932,22.932,0,0,1-1.946-3.159,24.334,24.334,0,0,1-3.1,2.042,26.627,26.627,0,0,0,2.684,4.12l.557.7h31.579a15.853,15.853,0,0,0,11.678-5.083l.312-.453a26.042,26.042,0,0,0,2.669-11.487A26.353,26.353,0,0,0-1370.784,931Z" transform="translate(1408.417 -928.572)" fill="#013443"/>
      <path id="Path_366" data-name="Path 366" d="M-1371.792,972.246h-32.021l-.833-1.049a27.384,27.384,0,0,1-2.777-4.263l-.427-.8.8-.435a23.344,23.344,0,0,0,2.981-1.964l.878-.67.5.983a22.285,22.285,0,0,0,1.6,2.657h29.3a11.263,11.263,0,0,0,8.016-3.325,21.385,21.385,0,0,0,2.02-9.074A21.675,21.675,0,0,0-1370,937.34a26.929,26.929,0,0,1-23.879,14.227l-1.789-.129.239-1.042a23.55,23.55,0,0,0,.63-5.325,23.42,23.42,0,0,0-3.544-12.362l-.475-.768,3.237-2.1,1.407,2.7a26.864,26.864,0,0,1,3.069,12.524c0,.258,0,.516-.012.779a21.414,21.414,0,0,0,17.391-13.64l1.175-3.027,2.8,1.633a27.276,27.276,0,0,1,13.539,23.484,26.942,26.942,0,0,1-2.763,11.891l-.379.571A16.8,16.8,0,0,1-1371.792,972.246Zm-31.133-1.841h31.133a14.947,14.947,0,0,0,11.007-4.793l.224-.344a25.127,25.127,0,0,0,2.507-10.966,25.426,25.426,0,0,0-12.625-21.891l-.941-.549-.4,1.016a23.241,23.241,0,0,1-20.017,14.915l-1.073.081.086-1.073c.046-.6.07-1.171.07-1.729a25.017,25.017,0,0,0-2.861-11.673l-.471-.908-.034.024a25.239,25.239,0,0,1,3.355,12.557,24.951,24.951,0,0,1-.446,4.651,25.093,25.093,0,0,0,22.258-14.177l.476-.978.884.631a23.525,23.525,0,0,1,9.874,19.1,23.221,23.221,0,0,1-2.264,10l-.174.25a13.084,13.084,0,0,1-9.439,3.988h-30.238l-.274-.375a23.088,23.088,0,0,1-1.514-2.335c-.527.375-1.042.713-1.55,1.02a25.242,25.242,0,0,0,2.162,3.2Z" transform="translate(1407.851 -929.184)" fill="#013443"/>
    </g>
    <g id="Group_579" data-name="Group 579" transform="translate(0 71.852)">
      <path id="Path_367" data-name="Path 367" d="M-1401.705,976.061a26.284,26.284,0,0,1-26.256-26.253,26.284,26.284,0,0,1,26.256-26.253,26.283,26.283,0,0,1,26.253,26.253,26.283,26.283,0,0,1-26.253,26.253m0-48.8a22.577,22.577,0,0,0-22.55,22.551,22.576,22.576,0,0,0,22.55,22.549,22.575,22.575,0,0,0,22.549-22.549,22.576,22.576,0,0,0-22.549-22.551" transform="translate(1428.879 -922.634)" fill="#013443"/>
      <path id="Path_368" data-name="Path 368" d="M-1401.286,977.4a27.205,27.205,0,0,1-27.173-27.174,27.205,27.205,0,0,1,27.173-27.174,27.2,27.2,0,0,1,27.172,27.174A27.2,27.2,0,0,1-1401.286,977.4Zm0-52.507a25.361,25.361,0,0,0-25.333,25.333,25.363,25.363,0,0,0,25.333,25.333,25.361,25.361,0,0,0,25.331-25.333A25.359,25.359,0,0,0-1401.286,924.9Zm0,48.8a23.5,23.5,0,0,1-23.469-23.47,23.5,23.5,0,0,1,23.469-23.473,23.5,23.5,0,0,1,23.47,23.473A23.5,23.5,0,0,1-1401.286,973.7Zm0-45.1a21.655,21.655,0,0,0-21.628,21.632,21.652,21.652,0,0,0,21.628,21.628,21.652,21.652,0,0,0,21.629-21.628A21.656,21.656,0,0,0-1401.286,928.6Z" transform="translate(1428.46 -923.054)" fill="#013443"/>
    </g>
    <g id="Group_580" data-name="Group 580" transform="translate(12.572)">
      <path id="Path_369" data-name="Path 369" d="M-1360.962,884.529h-44.176a16.011,16.011,0,0,0-15.994,15.985v61.914a24.326,24.326,0,0,1,3.7-2.048V900.514a12.308,12.308,0,0,1,12.29-12.292h44.176a12.307,12.307,0,0,1,12.292,12.292v92.378a12.3,12.3,0,0,1-12.292,12.292h-37.172a24.32,24.32,0,0,1-9.317,1.852,24.346,24.346,0,0,1-6.726-.961,15.906,15.906,0,0,0,9.039,2.811h44.176a16.012,16.012,0,0,0,16-15.994V900.514A16.012,16.012,0,0,0-1360.962,884.529Z" transform="translate(1422.052 -883.608)" fill="#013443"/>
      <path id="Path_370" data-name="Path 370" d="M-1360.541,1010.228h-44.176a16.814,16.814,0,0,1-9.562-2.974l-4.647-3.195,5.422,1.551a23.326,23.326,0,0,0,15.438-.856l.351-.071h37.173a11.382,11.382,0,0,0,11.37-11.371V900.935a11.384,11.384,0,0,0-11.37-11.372h-44.176a11.383,11.383,0,0,0-11.37,11.372V961.4l-.544.245a23.5,23.5,0,0,0-3.566,1.968l-1.435.975V900.935a16.929,16.929,0,0,1,16.915-16.906h44.176a16.931,16.931,0,0,1,16.916,16.906v92.378A16.935,16.935,0,0,1-1360.541,1010.228Zm-45.265-1.88c.36.024.722.039,1.089.039h44.176a15.093,15.093,0,0,0,15.075-15.074V900.935a15.088,15.088,0,0,0-15.075-15.065h-44.176a15.086,15.086,0,0,0-15.074,15.065v60.254c.593-.344,1.218-.668,1.863-.976V900.935a13.225,13.225,0,0,1,13.212-13.212h44.176a13.227,13.227,0,0,1,13.211,13.212v92.378a13.227,13.227,0,0,1-13.211,13.212h-36.99A25.142,25.142,0,0,1-1405.806,1008.348Z" transform="translate(1421.631 -884.029)" fill="#013443"/>
    </g>
    <g id="Group_581" data-name="Group 581" transform="translate(4.623 76.476)">
      <path id="Path_371" data-name="Path 371" d="M-1403.4,925.565a22.578,22.578,0,0,0-22.551,22.551,22.576,22.576,0,0,0,22.551,22.549,22.575,22.575,0,0,0,22.549-22.549,22.577,22.577,0,0,0-22.549-22.551" transform="translate(1425.949 -925.565)" fill="#d79a2b"/>
    </g>
  </g>
</svg>
