<svg xmlns="http://www.w3.org/2000/svg" viewBox="0 0 36.74 44.79"><defs><style>.cls-1{fill:#d79a2b;}.cls-2{fill:#0d3745;}</style></defs><title>2Asset 5</title><g id="Layer_2" data-name="Layer 2"><g id="Layer_1-2" data-name="Layer 1"><circle class="cls-1" cx="18.37" cy="20.64" r="6.12"/><path class="cls-2" d="M18.37,3.5a.87.87,0,1,0,.87.87A.87.87,0,0,0,18.37,3.5Z"/><path class="cls-2" d="M35.87,5.25A4.38,4.38,0,0,1,31.49.87.87.87,0,0,0,30.62,0H6.12a.87.87,0,0,0-.87.87A4.38,4.38,0,0,1,.87,5.25.87.87,0,0,0,0,6.12V20.4A25.41,25.41,0,0,0,18.12,44.75a.73.73,0,0,0,.25,0,.69.69,0,0,0,.25,0A25.41,25.41,0,0,0,36.74,20.4V6.12A.87.87,0,0,0,35.87,5.25ZM35,20.4A23.53,23.53,0,0,1,18.37,43,23.66,23.66,0,0,1,1.75,20.4V6.94A6.15,6.15,0,0,0,6.94,1.75H29.8A6.15,6.15,0,0,0,35,6.94Z"/><path class="cls-2" d="M32.72,8.09A7.85,7.85,0,0,1,28.65,4a.86.86,0,0,0-.8-.52h-6a.88.88,0,1,0,0,1.75H27.3a9.61,9.61,0,0,0,4.19,4.2v11A19.92,19.92,0,0,1,18.37,39.3,19.92,19.92,0,0,1,5.25,20.4V9.45a9.68,9.68,0,0,0,4.2-4.2h5.42a.88.88,0,1,0,0-1.75h-6a.86.86,0,0,0-.8.52A7.85,7.85,0,0,1,4,8.09a.86.86,0,0,0-.52.8V20.4A21.78,21.78,0,0,0,18.08,41.06a.87.87,0,0,0,.58,0A21.78,21.78,0,0,0,33.24,20.4V8.89A.86.86,0,0,0,32.72,8.09Z"/><path class="cls-2" d="M18.37,12.77a7.88,7.88,0,1,0,7.87,7.87A7.88,7.88,0,0,0,18.37,12.77Zm0,14a6.13,6.13,0,1,1,6.12-6.13A6.13,6.13,0,0,1,18.37,26.77Z"/><path class="cls-2" d="M22.49,18.28a.88.88,0,0,0-1.24,0L17.5,22,16.36,20.9a.87.87,0,0,0-1.23,0,.88.88,0,0,0,0,1.24l1.75,1.75a.88.88,0,0,0,1.23,0l4.38-4.38A.87.87,0,0,0,22.49,18.28Z"/></g></g></svg>