<svg xmlns="http://www.w3.org/2000/svg" viewBox="0 0 49.95 49.95"><defs><style>.cls-1{fill:#d79a2b;}.cls-2{fill:#0d3745;}</style></defs><title>Asset 3</title><g id="Layer_2" data-name="Layer 2"><g id="Layer_1-2" data-name="Layer 1"><path class="cls-1" d="M2.5,36.63h.91A1.65,1.65,0,0,1,5,37.71c.1.25.2.49.31.73a1.65,1.65,0,0,1-.33,1.86L4.29,41a1.66,1.66,0,0,0,0,2.35l2.35,2.36a1.66,1.66,0,0,0,2.35,0L9.65,45a1.65,1.65,0,0,1,1.86-.34c.24.11.49.22.74.31a1.66,1.66,0,0,1,1.07,1.55v.92A1.67,1.67,0,0,0,15,49.12h3.33A1.66,1.66,0,0,0,20,47.46v-.92A1.65,1.65,0,0,1,21.06,45l.73-.31a1.67,1.67,0,0,1,1.86.33l.66.66a1.68,1.68,0,0,0,2.35,0L29,43.31A1.66,1.66,0,0,0,29,41l-.65-.65A1.65,1.65,0,0,1,28,38.45c.11-.25.21-.49.31-.74a1.65,1.65,0,0,1,1.55-1.08h.91A1.66,1.66,0,0,0,32.47,35V31.64A1.67,1.67,0,0,0,30.8,30h-.91a1.66,1.66,0,0,1-1.55-1.07c-.1-.25-.2-.5-.31-.74a1.67,1.67,0,0,1,.33-1.86l.66-.65a1.69,1.69,0,0,0,0-2.36l-2.36-2.35a1.66,1.66,0,0,0-2.35,0l-.65.65a1.67,1.67,0,0,1-1.87.33c-.24-.11-.48-.21-.73-.3A1.67,1.67,0,0,1,20,20.06v-.91a1.66,1.66,0,0,0-1.66-1.67H15a1.67,1.67,0,0,0-1.67,1.67v.91a1.66,1.66,0,0,1-1.07,1.55l-.74.31a1.65,1.65,0,0,1-1.86-.33L9,20.94a1.66,1.66,0,0,0-2.35,0L4.29,23.29a1.67,1.67,0,0,0,0,2.36l.65.65a1.65,1.65,0,0,1,.33,1.86c-.11.24-.21.49-.3.74A1.68,1.68,0,0,1,3.41,30H2.5A1.67,1.67,0,0,0,.83,31.64V35A1.66,1.66,0,0,0,2.5,36.63ZM15,26.85a6.63,6.63,0,0,1,1.66-.21,5.79,5.79,0,0,1,.83.06l.23,0,.6.13.21.05a6.49,6.49,0,0,1,.74.26l.09,0c.21.1.42.2.62.32l.2.12.49.34.16.12a6.91,6.91,0,0,1,.57.51.52.52,0,0,0,.1.11c.14.16.28.32.41.49l.15.19c.11.16.23.33.33.51l.09.15a6.44,6.44,0,0,1,.34.7l.06.17a5.8,5.8,0,0,1,.19.59,2.17,2.17,0,0,1,.07.24q.07.33.12.66a.68.68,0,0,0,0,.14,6,6,0,0,1,0,.73v.1c0,.07,0,.14,0,.22s0,.42-.06.63,0,.2,0,.29-.06.3-.1.44a8.19,8.19,0,0,1-1,2.38,1.61,1.61,0,0,1-.31.38,9.45,9.45,0,0,1-1.37,1.06l-.11.07-.36.22a7.17,7.17,0,0,1-1.6.65l-.1,0a5.88,5.88,0,0,1-.73.14H17.4a6.3,6.3,0,0,1-.75.05h0c-.19,0-.37,0-.56,0l-.27,0a7.08,7.08,0,0,1-.8-.16,6.66,6.66,0,0,1,0-12.9Z"/><path class="cls-2" d="M30.8,29.14h-.91a.81.81,0,0,1-.77-.54q-.15-.41-.33-.78a.81.81,0,0,1,.17-.93l.65-.66a2.5,2.5,0,0,0,0-3.53l-2.35-2.35a2.5,2.5,0,0,0-3.53,0l-.65.65a.83.83,0,0,1-.93.17c-.26-.12-.52-.23-.79-.33a.84.84,0,0,1-.54-.78v-.91a2.49,2.49,0,0,0-2.49-2.5H15a2.5,2.5,0,0,0-2.5,2.5v.91a.84.84,0,0,1-.54.78c-.27.1-.53.21-.78.32a.82.82,0,0,1-.93-.16l-.66-.66a2.5,2.5,0,0,0-3.53,0L3.7,22.7a2.5,2.5,0,0,0,0,3.53l.65.66a.82.82,0,0,1,.17.93q-.18.38-.33.78a.82.82,0,0,1-.78.54H2.5A2.5,2.5,0,0,0,0,31.64V35a2.49,2.49,0,0,0,2.5,2.49h.91a.81.81,0,0,1,.77.54l.33.79a.83.83,0,0,1-.16.93l-.66.65a2.5,2.5,0,0,0,0,3.53l2.36,2.35a2.5,2.5,0,0,0,3.53,0l.65-.65a.84.84,0,0,1,.93-.17l.78.34a.81.81,0,0,1,.55.77v.91A2.5,2.5,0,0,0,15,50h3.33a2.49,2.49,0,0,0,2.49-2.5v-.91a.82.82,0,0,1,.54-.77c.27-.1.53-.21.79-.33a.83.83,0,0,1,.93.17l.65.65a2.5,2.5,0,0,0,3.53,0L29.6,43.9a2.5,2.5,0,0,0,0-3.53L29,39.72a.83.83,0,0,1-.17-.93c.12-.26.23-.52.34-.79a.81.81,0,0,1,.77-.54h.91A2.49,2.49,0,0,0,33.3,35V31.64A2.5,2.5,0,0,0,30.8,29.14ZM31.64,35a.84.84,0,0,1-.84.83h-.91a2.49,2.49,0,0,0-2.33,1.61c-.09.23-.19.46-.29.69a2.5,2.5,0,0,0,.5,2.79l.65.65a.83.83,0,0,1,0,1.18h0l-2.35,2.35a.83.83,0,0,1-1.18,0l-.65-.65a2.51,2.51,0,0,0-2.8-.5c-.22.11-.45.2-.68.29a2.49,2.49,0,0,0-1.61,2.33v.91a.84.84,0,0,1-.83.84H15a.85.85,0,0,1-.84-.84v-.91a2.49,2.49,0,0,0-1.61-2.33l-.69-.29a2.5,2.5,0,0,0-2.79.5l-.65.65a.83.83,0,0,1-1.18,0h0L4.88,42.72a.83.83,0,0,1,0-1.18l.65-.65A2.5,2.5,0,0,0,6,38.1c-.1-.23-.2-.46-.29-.69A2.49,2.49,0,0,0,3.41,35.8H2.5A.83.83,0,0,1,1.67,35V31.64a.84.84,0,0,1,.83-.84h.91a2.49,2.49,0,0,0,2.33-1.61c.09-.23.19-.46.29-.68a2.51,2.51,0,0,0-.5-2.8l-.65-.65a.83.83,0,0,1,0-1.18h0l2.35-2.35a.83.83,0,0,1,1.18,0l.65.65a2.5,2.5,0,0,0,2.79.5l.69-.29a2.49,2.49,0,0,0,1.61-2.33v-.91a.84.84,0,0,1,.84-.83h3.33a.83.83,0,0,1,.83.83v.91a2.5,2.5,0,0,0,1.61,2.34c.23.08.46.18.69.28a2.5,2.5,0,0,0,2.79-.5l.65-.65a.85.85,0,0,1,1.18,0l2.35,2.35a.83.83,0,0,1,0,1.18l-.65.65a2.51,2.51,0,0,0-.5,2.8c.1.22.2.45.29.68a2.49,2.49,0,0,0,2.33,1.61h.91a.85.85,0,0,1,.84.84V35Z"/><path class="cls-2" d="M24.13,33c0-.2,0-.4-.05-.6S24,32,24,31.74s-.07-.27-.11-.4-.1-.35-.15-.51-.09-.23-.13-.35-.23-.52-.37-.78c0,0,0,0,0-.05a6.83,6.83,0,0,0-.74-1.1.6.6,0,0,1-.08-.08c-.12-.14-.23-.27-.36-.4l-.2-.19-.25-.23-.31-.25-.14-.11a7.44,7.44,0,0,0-4.46-1.48H16.4l-.53,0-.29,0c-.27,0-.54.09-.8.15a7.5,7.5,0,0,0,0,14.52h0a8.55,8.55,0,0,0,.88.17c.19,0,.38,0,.58,0s.25,0,.38,0,.49,0,.74,0h.08a4.44,4.44,0,0,0,.62-.1l.24,0,.44-.11.35-.12.35-.13c.11,0,.21-.1.32-.15a4,4,0,0,0,.42-.2h0a9.54,9.54,0,0,0,2.14-1.54,2.54,2.54,0,0,0,.44-.54,9,9,0,0,0,1.26-3.43c0-.16,0-.32.05-.48l0-.45v-.14C24.14,33.19,24.13,33.08,24.13,33Zm-8.94-5.31a6,6,0,0,1,1.46-.19c.24,0,.48,0,.71.05l.19,0a4.52,4.52,0,0,1,.53.11l.18,0a5.92,5.92,0,0,1,1.27.54l.19.11.38.27a1,1,0,0,1,.2.15,6,6,0,0,1,.47.41l.17.19c.1.1.19.21.28.32l.18.24.24.37.12.21a4.85,4.85,0,0,1,.29.61l.09.25a4,4,0,0,1,.14.46c0,.09,0,.16.07.24s.08.46.1.68a1.21,1.21,0,0,1,0,.19,5.42,5.42,0,0,1,0,.57c0,.07,0,.14,0,.21s0,.4-.08.61a5.83,5.83,0,0,1-2.92,4.08l-.31.15-.07,0a6.08,6.08,0,0,1-1.52.46l-.11,0-.31,0a2.61,2.61,0,0,1-.4,0h-.18l-.59,0h-.1c-.22,0-.45-.08-.68-.13a5.83,5.83,0,0,1,0-11.29Z"/><path class="cls-2" d="M47.45,17.48H44.84a.8.8,0,0,1-.78-.54,17.88,17.88,0,0,0-.93-2.26.81.81,0,0,1,.16-.94l1.85-1.86a2.49,2.49,0,0,0,0-3.53L41.6,4.82a2.49,2.49,0,0,0-3.53,0L36.22,6.67a.81.81,0,0,1-.94.16A18.56,18.56,0,0,0,33,5.89a.81.81,0,0,1-.55-.77V2.5A2.5,2.5,0,0,0,30,0H25a2.5,2.5,0,0,0-2.5,2.5V5.12a.82.82,0,0,1-.55.77,17.79,17.79,0,0,0-2.25.94.8.8,0,0,1-.94-.16L16.88,4.81a2.5,2.5,0,0,0-3.53,0L9.81,8.35a2.5,2.5,0,0,0,0,3.53l2.73,2.73a.83.83,0,0,0,1.18-1.17L11,10.7a.82.82,0,0,1,0-1.17L14.52,6A.85.85,0,0,1,15.7,6l1.86,1.86a2.46,2.46,0,0,0,2.86.47,16.55,16.55,0,0,1,2-.85,2.46,2.46,0,0,0,1.68-2.35V2.5A.84.84,0,0,1,25,1.67h5a.83.83,0,0,1,.83.83V5.12a2.48,2.48,0,0,0,1.69,2.35,16.55,16.55,0,0,1,2,.85,2.48,2.48,0,0,0,2.86-.47L39.25,6a.83.83,0,0,1,1.17,0L44,9.53a.83.83,0,0,1,0,1.17L42.1,12.56a2.51,2.51,0,0,0-.47,2.87,14.62,14.62,0,0,1,.85,2,2.49,2.49,0,0,0,2.36,1.68h2.61a.84.84,0,0,1,.84.83v5a.84.84,0,0,1-.84.83H44.84a2.47,2.47,0,0,0-2.36,1.68,15.14,15.14,0,0,1-.85,2,2.49,2.49,0,0,0,.47,2.86L44,34.25a.85.85,0,0,1,0,1.18L40.42,39a.82.82,0,0,1-1.17,0l-2.74-2.73a.83.83,0,1,0-1.19,1.16l0,0,2.73,2.73a2.5,2.5,0,0,0,3.53,0l3.54-3.53a2.5,2.5,0,0,0,0-3.53l-1.86-1.86a.82.82,0,0,1-.16-.94A16.56,16.56,0,0,0,44.06,28a.82.82,0,0,1,.78-.55h2.61A2.49,2.49,0,0,0,50,25V20A2.5,2.5,0,0,0,47.45,17.48Z"/><path class="cls-2" d="M35.13,14.83a10.84,10.84,0,0,0-15.31,0,.82.82,0,0,0,0,1.17A.84.84,0,0,0,21,16,9.16,9.16,0,0,1,34,28.87L34,29a.83.83,0,1,0,1.16,1.2l0,0A10.83,10.83,0,0,0,35.13,14.83Z"/></g></g></svg>