<svg xmlns="http://www.w3.org/2000/svg" width="108.279" height="76.893" viewBox="0 0 108.279 76.893">
  <g id="ETF" transform="translate(0.5 0.5)">
    <g id="Group_596" data-name="Group 596" transform="translate(12.056 13.501)">
      <path id="Path_378" data-name="Path 378" d="M-1890.531,1140.723l19.546-16.626,1.184-1.006,1.109,1.083,11.441,11.159,24.877-7.72,23.531-23.051,2.383,2.263-23.82,23.335-.682.405-26.244,8.144-.977.3-.719-.7-11.052-10.778-18.364,15.62Z" transform="translate(1890.531 -1104.562)" fill="#013443" stroke="#013443" stroke-width="1"/>
    </g>
    <g id="Group_597" data-name="Group 597" transform="translate(28.487 30.476)">
      <path id="Path_379" data-name="Path 379" d="M-1877.083,1122.208a4.093,4.093,0,0,0,4.177-3.995,4.087,4.087,0,0,0-4.136-4.032,4.088,4.088,0,0,0-4.177,3.993A4.086,4.086,0,0,0-1877.083,1122.208Z" transform="translate(1881.219 -1114.182)" fill="#d79a2b" fill-rule="evenodd"/>
    </g>
    <g id="Group_598" data-name="Group 598" transform="translate(40.715 42.098)">
      <path id="Path_380" data-name="Path 380" d="M-1870.156,1128.8a4.087,4.087,0,0,0,4.177-3.993,4.085,4.085,0,0,0-4.134-4.033,4.087,4.087,0,0,0-4.176,3.994A4.082,4.082,0,0,0-1870.156,1128.8Z" transform="translate(1874.289 -1120.769)" fill="#d79a2b" fill-rule="evenodd"/>
    </g>
    <g id="Group_599" data-name="Group 599" transform="translate(66.959 33.953)">
      <path id="Path_381" data-name="Path 381" d="M-1855.281,1124.18a4.088,4.088,0,0,0,4.176-3.993,4.086,4.086,0,0,0-4.134-4.034,4.087,4.087,0,0,0-4.176,3.993A4.082,4.082,0,0,0-1855.281,1124.18Z" transform="translate(1859.415 -1116.153)" fill="#d79a2b" fill-rule="evenodd"/>
    </g>
    <g id="Group_600" data-name="Group 600" transform="translate(90.779 10.618)">
      <path id="Path_382" data-name="Path 382" d="M-1841.779,1110.954a4.089,4.089,0,0,0,4.177-3.993,4.088,4.088,0,0,0-4.136-4.033,4.091,4.091,0,0,0-4.177,4A4.086,4.086,0,0,0-1841.779,1110.954Z" transform="translate(1845.915 -1102.928)" fill="#d79a2b" fill-rule="evenodd"/>
    </g>
    <g id="Group_601" data-name="Group 601">
      <path id="Path_383" data-name="Path 383" d="M-1795.609,1100.148h-96.232a2.207,2.207,0,0,0-1.532.616,2.062,2.062,0,0,0-.64,1.482v54.829a2.057,2.057,0,0,0,.64,1.48,2.2,2.2,0,0,0,1.532.618h96.232a2.2,2.2,0,0,0,1.532-.618,2.059,2.059,0,0,0,.639-1.48v-54.829a2.064,2.064,0,0,0-.639-1.482A2.2,2.2,0,0,0-1795.609,1100.148Zm-96.232-3.238h96.232a5.619,5.619,0,0,1,3.9,1.565,5.235,5.235,0,0,1,1.62,3.771v54.829a5.241,5.241,0,0,1-1.62,3.771,5.617,5.617,0,0,1-3.9,1.565h-96.232a5.618,5.618,0,0,1-3.9-1.565,5.235,5.235,0,0,1-1.62-3.771v-54.829a5.228,5.228,0,0,1,1.62-3.771A5.619,5.619,0,0,1-1891.841,1096.91Z" transform="translate(1897.364 -1096.91)" fill="#013443" stroke="#013443" stroke-width="1"/>
    </g>
    <g id="Group_602" data-name="Group 602" transform="translate(39.46 62.262)">
      <path id="Path_384" data-name="Path 384" d="M-1857.62,1135.435h-9.515l-3.533,7.155h16.582Zm-10.537-3.238h11.594a1.68,1.68,0,0,1,1.541.979l5.1,10.335a1.594,1.594,0,0,1-.792,2.157,1.725,1.725,0,0,1-.746.159h-21.867a1.649,1.649,0,0,1-1.676-1.618,1.594,1.594,0,0,1,.191-.752l5.106-10.337h0A1.685,1.685,0,0,1-1868.157,1132.2Z" transform="translate(1875 -1132.197)" fill="#013443" stroke="#013443" stroke-width="1"/>
    </g>
    <g id="Group_603" data-name="Group 603" transform="translate(30.931 72.655)">
      <path id="Path_385" data-name="Path 385" d="M-1878.157,1138.087a1.649,1.649,0,0,0-1.677,1.62,1.649,1.649,0,0,0,1.677,1.618h38.952a1.649,1.649,0,0,0,1.677-1.618,1.649,1.649,0,0,0-1.677-1.62Z" transform="translate(1879.834 -1138.087)" fill="#013443" stroke="#013443" stroke-width="1"/>
    </g>
    <g id="Group_595" data-name="Group 595" transform="translate(8.187 47.548)">
      <path id="Path_377" data-name="Path 377" d="M-1888.589,1131.883a4.086,4.086,0,0,0,4.177-3.991,4.083,4.083,0,0,0-4.135-4.034,4.086,4.086,0,0,0-4.177,3.991A4.086,4.086,0,0,0-1888.589,1131.883Z" transform="translate(1892.724 -1123.858)" fill="#d79a2b" fill-rule="evenodd"/>
    </g>
  </g>
</svg>
