<svg xmlns="http://www.w3.org/2000/svg" width="98.581" height="109.328" viewBox="0 0 98.581 109.328">
  <g id="FD" transform="translate(-1852.744 -6542.649)">
    <path id="Path_349" data-name="Path 349" d="M-1580.417,931.347a13.44,13.44,0,0,0-13.425,13.425,13.438,13.438,0,0,0,13.425,13.424,13.437,13.437,0,0,0,13.423-13.424,13.439,13.439,0,0,0-13.423-13.425" transform="translate(3482.667 5690.095)" fill="#d79a2b"/>
    <g id="Group_567" data-name="Group 567" transform="translate(1853.144 6543.049)">
      <g id="Group_563" data-name="Group 563" transform="translate(32.003 75.109)">
        <path id="Path_350" data-name="Path 350" d="M-1579.8,961.524a16.024,16.024,0,0,1-16.006-16.007,16.024,16.024,0,0,1,16.006-16.006,16.024,16.024,0,0,1,16.005,16.006,16.024,16.024,0,0,1-16.005,16.007m0-29.432a13.439,13.439,0,0,0-13.424,13.425,13.438,13.438,0,0,0,13.424,13.424,13.438,13.438,0,0,0,13.424-13.424,13.44,13.44,0,0,0-13.424-13.425" transform="translate(1596.509 -928.808)" fill="#013443" stroke="#013443" stroke-width="0.8"/>
        <path id="Path_351" data-name="Path 351" d="M-1579.6,962.43a16.728,16.728,0,0,1-16.709-16.71,16.727,16.727,0,0,1,16.709-16.709,16.727,16.727,0,0,1,16.708,16.709A16.728,16.728,0,0,1-1579.6,962.43Zm0-32.013a15.321,15.321,0,0,0-15.3,15.3,15.321,15.321,0,0,0,15.3,15.3,15.321,15.321,0,0,0,15.3-15.3A15.321,15.321,0,0,0-1579.6,930.417Zm0,29.431a14.143,14.143,0,0,1-14.127-14.127,14.144,14.144,0,0,1,14.127-14.128,14.144,14.144,0,0,1,14.127,14.128A14.143,14.143,0,0,1-1579.6,959.847Zm0-26.849a12.736,12.736,0,0,0-12.721,12.723,12.735,12.735,0,0,0,12.721,12.721,12.736,12.736,0,0,0,12.721-12.721A12.736,12.736,0,0,0-1579.6,933Z" transform="translate(1596.306 -929.011)" fill="#013443" stroke="#013443" stroke-width="0.8"/>
      </g>
      <g id="Group_564" data-name="Group 564">
        <path id="Path_352" data-name="Path 352" d="M-1570.383,953.421a48.24,48.24,0,0,1-48.185-48.188c0-1.451.073-2.967.215-4.5a1.286,1.286,0,0,1,.252-.654,59.847,59.847,0,0,1,47.718-23.988,59.838,59.838,0,0,1,47.72,23.989,1.3,1.3,0,0,1,.253.652c.145,1.571.217,3.044.217,4.5a48.243,48.243,0,0,1-48.19,48.188m-45.432-52.091c-.115,1.334-.172,2.646-.172,3.9a45.657,45.657,0,0,0,45.6,45.607,45.659,45.659,0,0,0,45.608-45.607c0-1.266-.057-2.547-.173-3.9a57.252,57.252,0,0,0-45.435-22.662,57.253,57.253,0,0,0-45.432,22.661" transform="translate(1619.272 -875.385)" fill="#013443" stroke="#013443" stroke-width="0.8"/>
        <path id="Path_353" data-name="Path 353" d="M-1570.179,954.327a48.946,48.946,0,0,1-48.89-48.891c0-1.471.074-3.007.219-4.569a2.015,2.015,0,0,1,.385-1.005,60.558,60.558,0,0,1,48.285-24.273,60.552,60.552,0,0,1,48.284,24.272,1.994,1.994,0,0,1,.389,1c.148,1.592.219,3.086.219,4.572A48.947,48.947,0,0,1-1570.179,954.327Zm0-77.333a59.148,59.148,0,0,0-47.156,23.706.583.583,0,0,0-.113.3c-.142,1.518-.214,3.011-.214,4.438a47.538,47.538,0,0,0,47.484,47.485,47.539,47.539,0,0,0,47.486-47.485c0-1.443-.07-2.895-.213-4.438a.574.574,0,0,0-.114-.294A59.138,59.138,0,0,0-1570.179,876.994Zm0,74.75a46.361,46.361,0,0,1-46.307-46.308c0-1.293.059-2.626.174-3.963l.018-.2.122-.161a58,58,0,0,1,45.992-22.939,57.994,57.994,0,0,1,45.994,22.941l.122.16.017.2c.119,1.368.177,2.664.177,3.963A46.361,46.361,0,0,1-1570.179,951.744Zm-44.748-49.948c-.1,1.229-.153,2.452-.153,3.64a44.953,44.953,0,0,0,44.9,44.9,44.955,44.955,0,0,0,44.9-44.9c0-1.193-.051-2.386-.155-3.64a56.588,56.588,0,0,0-44.75-22.221A56.586,56.586,0,0,0-1614.927,901.8Z" transform="translate(1619.069 -875.588)" fill="#013443" stroke="#013443" stroke-width="0.8"/>
      </g>
      <g id="Group_565" data-name="Group 565" transform="translate(43.073 85.227)">
        <path id="Path_354" data-name="Path 354" d="M-1578.856,953.272h-2.391c-.139,0-.139,0-6.814-8.7l-.043-.057v-.288l.215-.045h.688c2.349,0,3.716-.808,4.182-2.47.016-.134.028-.263.032-.37h-5.14a.29.29,0,0,1-.3-.3v-1.015a.3.3,0,0,1,.3-.3h5.021a2.732,2.732,0,0,0-.987-1.281,4.612,4.612,0,0,0-2.094-.6h-1.94a.292.292,0,0,1-.3-.307v-1.015a.3.3,0,0,1,.3-.305h10.67a.308.308,0,0,1,.3.305v1.015a.291.291,0,0,1-.3.307h-3.476a3.976,3.976,0,0,1,1,1.7l.024.18h2.454a.306.306,0,0,1,.3.3v1.015a.29.29,0,0,1-.3.3h-2.331a4.8,4.8,0,0,1-2.161,3.272,8.537,8.537,0,0,1-2.466,1.077l5.561,7.206Zm-2.293-.43h1.708l-5.8-7.51h.31v-.045h.215a6.442,6.442,0,0,0,2.522-1.032,4.194,4.194,0,0,0,1.978-3.13v-.214h2.628v-.766l-2.7,0-.072-.513a2.932,2.932,0,0,0-1.22-1.735l-.113-.061V937.4h4.1v-.769l-10.418,0v.766h1.813a5.04,5.04,0,0,1,2.323.668,3.186,3.186,0,0,1,1.26,1.8l.07.27H-1588v.765h5.445v.352a4.146,4.146,0,0,1-.045.536c-.523,1.877-2.069,2.815-4.6,2.815h-.286c4.834,6.3,6.082,7.908,6.339,8.229" transform="translate(1588.432 -936.208)" fill="#013443" stroke="#013443" stroke-width="0.8"/>
      </g>
      <g id="Group_566" data-name="Group 566" transform="translate(43.504 85.655)">
        <path id="Path_355" data-name="Path 355" d="M-1581.274,952.718h1.708l-5.8-7.511h.31v-.045h.215a6.441,6.441,0,0,0,2.522-1.031,4.2,4.2,0,0,0,1.978-3.13v-.214h2.628v-.766h-2.7l-.072-.513a2.932,2.932,0,0,0-1.22-1.735l-.114-.061v-.433h4.105v-.77l-10.418,0v.767h1.814a5.038,5.038,0,0,1,2.322.667,3.184,3.184,0,0,1,1.26,1.8l.07.27h-5.467v.765h5.445v.351a4.048,4.048,0,0,1-.045.536c-.523,1.877-2.068,2.815-4.6,2.815h-.285c4.835,6.3,6.082,7.908,6.339,8.229" transform="translate(1588.126 -936.512)" fill="#013443" stroke="#013443" stroke-width="0.8"/>
      </g>
    </g>
  </g>
</svg>
