<svg xmlns="http://www.w3.org/2000/svg" width="114.624" height="77.088" viewBox="0 0 114.624 77.088">
  <g id="SIP" transform="translate(0.35 0.35)">
    <g id="Group_594" data-name="Group 594" transform="translate(0 0)">
      <g id="Group_585" data-name="Group 585" transform="translate(0 16.855)">
        <g id="Group_584" data-name="Group 584">
          <g id="Group_583" data-name="Group 583">
            <path id="Path_372" data-name="Path 372" d="M-2059.878,1109.376a33.59,33.59,0,0,0-14.7-3.075,33.577,33.577,0,0,0-14.695,3.075c-4.5,2.248-6.973,5.43-6.973,8.961v28.9c0,3.531,2.477,6.714,6.973,8.963a33.608,33.608,0,0,0,14.695,3.073,33.614,33.614,0,0,0,14.7-3.073c4.5-2.25,6.974-5.432,6.974-8.963v-28.9C-2052.9,1114.806-2055.382,1111.624-2059.878,1109.376Zm-14.7,1.739c9.646,0,16.853,3.814,16.853,7.222s-7.207,7.224-16.853,7.224-16.851-3.814-16.851-7.224S-2084.217,1111.115-2074.573,1111.115Zm16.853,36.117c0,3.408-7.207,7.222-16.853,7.222s-16.851-3.814-16.851-7.222v-1.924a19.1,19.1,0,0,0,2.156,1.254,33.58,33.58,0,0,0,14.695,3.075,33.587,33.587,0,0,0,14.7-3.075,18.93,18.93,0,0,0,2.157-1.254Zm0-9.631h0c0,3.408-7.207,7.222-16.853,7.222s-16.851-3.814-16.851-7.222v-1.923a19.136,19.136,0,0,0,2.156,1.254,33.583,33.583,0,0,0,14.695,3.075,33.573,33.573,0,0,0,14.7-3.075,18.967,18.967,0,0,0,2.157-1.254Zm0-9.631h0c0,3.408-7.207,7.222-16.853,7.222s-16.851-3.814-16.851-7.225v-1.921a19.248,19.248,0,0,0,2.156,1.254,33.615,33.615,0,0,0,14.695,3.075,33.607,33.607,0,0,0,14.7-3.075,19.076,19.076,0,0,0,2.157-1.254Z" transform="translate(2096.241 -1106.301)" fill="#013443" stroke="#013443" stroke-width="0.7"/>
          </g>
        </g>
      </g>
      <g id="Group_588" data-name="Group 588" transform="translate(70.588)">
        <g id="Group_587" data-name="Group 587">
          <g id="Group_586" data-name="Group 586">
            <path id="Path_373" data-name="Path 373" d="M-2019.178,1099.657a33.623,33.623,0,0,0-14.7-3.074,33.614,33.614,0,0,0-14.695,3.074c-4.5,2.248-6.973,5.433-6.973,8.964v9.633c0,3.531,2.478,6.714,6.973,8.963a33.62,33.62,0,0,0,14.695,3.073,33.623,33.623,0,0,0,14.7-3.073c4.5-2.25,6.972-5.432,6.972-8.963v-9.633C-2012.206,1105.09-2014.683,1101.906-2019.178,1099.657Zm-14.7,1.742c9.644,0,16.851,3.812,16.851,7.223s-7.207,7.221-16.851,7.221-16.851-3.814-16.851-7.221S-2043.519,1101.4-2033.873,1101.4Zm16.851,16.855c0,3.407-7.207,7.222-16.851,7.222s-16.851-3.814-16.851-7.222v-1.924a18.61,18.61,0,0,0,2.156,1.254,33.583,33.583,0,0,0,14.695,3.075,33.592,33.592,0,0,0,14.7-3.075,18.747,18.747,0,0,0,2.156-1.254Z" transform="translate(2055.542 -1096.583)" fill="#013443" stroke="#013443" stroke-width="0.7"/>
          </g>
        </g>
      </g>
      <g id="Group_591" data-name="Group 591" transform="translate(70.588 42.68)">
        <g id="Group_590" data-name="Group 590">
          <g id="Group_589" data-name="Group 589">
            <path id="Path_374" data-name="Path 374" d="M-2019.178,1124.266a33.589,33.589,0,0,0-14.7-3.075,33.579,33.579,0,0,0-14.695,3.075c-4.5,2.248-6.973,5.43-6.973,8.962v9.632c0,3.533,2.478,6.716,6.973,8.964a33.616,33.616,0,0,0,14.695,3.075,33.62,33.62,0,0,0,14.7-3.075c4.5-2.248,6.972-5.43,6.972-8.964v-9.632C-2012.206,1129.7-2014.683,1126.514-2019.178,1124.266Zm-14.7,1.74c9.644,0,16.851,3.813,16.851,7.222s-7.207,7.222-16.851,7.222-16.851-3.812-16.851-7.222S-2043.519,1126.006-2033.873,1126.006Zm16.851,16.854c0,3.41-7.207,7.222-16.851,7.222s-16.851-3.812-16.851-7.222v-1.922a18.861,18.861,0,0,0,2.156,1.254,33.614,33.614,0,0,0,14.695,3.075,33.623,33.623,0,0,0,14.7-3.075,19,19,0,0,0,2.156-1.254Z" transform="translate(2055.542 -1121.191)" fill="#013443" stroke="#013443" stroke-width="0.7"/>
          </g>
        </g>
      </g>
      <g id="Group_592" data-name="Group 592" transform="translate(49.606 26.634)">
        <path id="Path_375" data-name="Path 375" d="M-2055.9,1112.88l-4.923-.926a.814.814,0,0,0-.874,1.171l.467.906a.811.811,0,0,1-.353,1.094l-5.61,2.86a.812.812,0,0,0-.352,1.093l.361.711a.812.812,0,0,0,1.093.354l5.619-2.865a.812.812,0,0,1,1.092.352l.474.922a.812.812,0,0,0,1.456-.022l2.135-4.5A.811.811,0,0,0-2055.9,1112.88Z" transform="translate(2067.639 -1111.939)" fill="#013443" stroke="#013443" stroke-width="0.7"/>
      </g>
      <g id="Group_593" data-name="Group 593" transform="translate(49.606 45.419)">
        <path id="Path_376" data-name="Path 376" d="M-2055.9,1130.122l-4.923.924a.813.813,0,0,1-.874-1.169l.467-.906a.811.811,0,0,0-.353-1.094l-5.61-2.86a.812.812,0,0,1-.352-1.093l.361-.711a.811.811,0,0,1,1.093-.353l5.619,2.865a.815.815,0,0,0,1.092-.352l.474-.924a.812.812,0,0,1,1.456.024l2.135,4.5A.813.813,0,0,1-2055.9,1130.122Z" transform="translate(2067.639 -1122.771)" fill="#013443" stroke="#013443" stroke-width="0.7"/>
      </g>
    </g>
    <path id="Path_399" data-name="Path 399" d="M-2035.913,1099.36c9.645,0,16.852,3.812,16.852,7.222s-7.207,7.222-16.852,7.222-16.851-3.814-16.851-7.222S-2045.558,1099.36-2035.913,1099.36Z" transform="translate(2128.168 -1094.543)" fill="#d79a2b"/>
    <g id="Group_613" data-name="Group 613" transform="translate(75.405 47.495)">
      <path id="Path_400" data-name="Path 400" d="M-2035.913,1123.967c9.645,0,16.852,3.814,16.852,7.222s-7.207,7.223-16.852,7.223-16.851-3.813-16.851-7.223S-2045.558,1123.967-2035.913,1123.967Z" transform="translate(2052.764 -1123.967)" fill="#d79a2b"/>
    </g>
  </g>
</svg>
