<svg id="Bonds" xmlns="http://www.w3.org/2000/svg" width="119.209" height="128.735" viewBox="0 0 119.209 128.735">
  <g id="Group_605" data-name="Group 605" transform="translate(10.992)">
    <path id="Path_386" data-name="Path 386" d="M-1590.125,1222.355h-94.66a1.841,1.841,0,0,1-1.833-1.832,1.841,1.841,0,0,1,1.833-1.831H-1590a5.033,5.033,0,0,0,5.009-5.008h0V1105.218a5.031,5.031,0,0,0-5.009-5h-76.949a5.031,5.031,0,0,0-5.009,5.008v83.3a1.841,1.841,0,0,1-1.832,1.833,1.84,1.84,0,0,1-1.83-1.833v-83.3a8.714,8.714,0,0,1,8.671-8.672H-1590a8.714,8.714,0,0,1,8.672,8.67v108.466a8.714,8.714,0,0,1-8.672,8.671Z" transform="translate(1688.081 -1095.086)" fill="#013443"/>
    <path id="Path_387" data-name="Path 387" d="M-1589.038,1224.784h-94.783a3.3,3.3,0,0,1-3.3-3.3,3.3,3.3,0,0,1,3.3-3.3h94.664a3.57,3.57,0,0,0,3.66-3.54V1106.185a3.546,3.546,0,0,0-3.54-3.543h-76.951a3.589,3.589,0,0,0-3.543,3.543v83.3a3.3,3.3,0,0,1-3.3,3.3,3.3,3.3,0,0,1-3.3-3.3v-83.3a10.147,10.147,0,0,1,10.137-10.136h76.831a10.172,10.172,0,0,1,10.256,10.136v108.462A10.145,10.145,0,0,1-1589.038,1224.784Zm-94.783-3.663a.373.373,0,0,0-.365.366.373.373,0,0,0,.365.366h94.783a7.214,7.214,0,0,0,7.206-7.206V1106.185a7.215,7.215,0,0,0-7.206-7.209l-76.951,0a7.214,7.214,0,0,0-7.207,7.206v83.3c0,.388.733.388.733,0v-83.3a6.481,6.481,0,0,1,6.474-6.474h76.825a6.506,6.506,0,0,1,6.6,6.474v108.462a6.478,6.478,0,0,1-6.47,6.473Z" transform="translate(1687.118 -1096.049)" fill="#003443"/>
  </g>
  <g id="Group_606" data-name="Group 606" transform="translate(0 52.153)">
    <path id="Path_388" data-name="Path 388" d="M-1679.5,1118.009h-.12a7.118,7.118,0,0,0-7.086,7.086v50.078a9.206,9.206,0,0,0,9.161,9.162,9.206,9.206,0,0,0,9.161-9.162v-57.164Zm1.955,69.989a12.886,12.886,0,0,1-12.825-12.825v-50.078a10.92,10.92,0,0,1,10.87-10.749h14.778v60.827A12.885,12.885,0,0,1-1677.544,1188Z" transform="translate(1691.834 -1112.881)" fill="#013443"/>
    <path id="Path_389" data-name="Path 389" d="M-1676.58,1190.427a14.3,14.3,0,0,1-14.289-14.289V1126.06a12.38,12.38,0,0,1,12.334-12.214h16.243v62.292A14.305,14.305,0,0,1-1676.58,1190.427Zm-1.955-73.651a9.439,9.439,0,0,0-9.405,9.3v50.061a11.372,11.372,0,0,0,11.36,11.359,11.373,11.373,0,0,0,11.358-11.359v-59.362Zm1.955,69.988a10.637,10.637,0,0,1-10.624-10.626V1126.06a8.557,8.557,0,0,1,8.549-8.551h12.7v58.629A10.639,10.639,0,0,1-1676.58,1186.764Zm-2.075-66.324a5.625,5.625,0,0,0-5.618,5.621v50.078a7.7,7.7,0,0,0,7.693,7.7,7.7,7.7,0,0,0,7.695-7.7v-55.7Z" transform="translate(1690.869 -1113.846)" fill="#003443"/>
  </g>
  <g id="Group_607" data-name="Group 607" transform="translate(41.038 99.964)">
    <path id="Path_390" data-name="Path 390" d="M-1622.009,1135.921h-52.523c-1.006,0-1.833-1.186-1.833-2.629s.827-2.632,1.833-2.632h52.523c1,0,1.831,1.187,1.831,2.632S-1621.006,1135.921-1622.009,1135.921Z" transform="translate(1677.83 -1129.196)" fill="#013443"/>
    <path id="Path_391" data-name="Path 391" d="M-1621.047,1138.352h-52.517c-1.852,0-3.3-1.8-3.3-4.093s1.448-4.1,3.3-4.1h52.517c1.849,0,3.3,1.8,3.3,4.1S-1619.2,1138.352-1621.047,1138.352Zm-.06-5.271-52.458.012a1.713,1.713,0,0,0-.37,1.167,1.452,1.452,0,0,0,.426,1.171l52.422-.009a1.547,1.547,0,0,0,.4-1.163A1.473,1.473,0,0,0-1621.107,1133.08Z" transform="translate(1676.865 -1130.161)" fill="#003443"/>
  </g>
  <g id="Group_608" data-name="Group 608" transform="translate(41.038 81.91)">
    <path id="Path_392" data-name="Path 392" d="M-1622.009,1129.76h-52.523c-1.006,0-1.833-1.187-1.833-2.632s.827-2.629,1.833-2.629h52.523c1,0,1.831,1.187,1.831,2.629S-1621.006,1129.76-1622.009,1129.76Z" transform="translate(1677.83 -1123.035)" fill="#013443"/>
    <path id="Path_393" data-name="Path 393" d="M-1621.047,1132.189h-52.517c-1.852,0-3.3-1.8-3.3-4.1s1.448-4.093,3.3-4.093h52.517c1.849,0,3.3,1.8,3.3,4.093S-1619.2,1132.189-1621.047,1132.189Zm-.06-5.271-52.458.011a1.714,1.714,0,0,0-.37,1.164,1.456,1.456,0,0,0,.426,1.175l52.422-.008a1.547,1.547,0,0,0,.4-1.167A1.469,1.469,0,0,0-1621.107,1126.918Z" transform="translate(1676.865 -1124)" fill="#003443"/>
  </g>
  <g id="Group_609" data-name="Group 609" transform="translate(75.038 63.788)">
    <path id="Path_394" data-name="Path 394" d="M-1644.41,1123.575h-18.52c-1,0-1.833-1.186-1.833-2.631s.828-2.628,1.833-2.628h18.52c1.006,0,1.833,1.187,1.833,2.628S-1643.4,1123.575-1644.41,1123.575Z" transform="translate(1666.23 -1116.851)" fill="#013443"/>
    <path id="Path_395" data-name="Path 395" d="M-1643.446,1126h-18.518c-1.852,0-3.3-1.8-3.3-4.09s1.448-4.1,3.3-4.1h18.518c1.849,0,3.3,1.8,3.3,4.1S-1641.6,1126-1643.446,1126Zm-.056-5.266-18.462.009a1.727,1.727,0,0,0-.369,1.167,1.442,1.442,0,0,0,.428,1.169l18.421-.01a1.511,1.511,0,0,0,.4-1.159A1.477,1.477,0,0,0-1643.5,1120.737Z" transform="translate(1665.263 -1117.816)" fill="#003443"/>
  </g>
  <g id="Group_610" data-name="Group 610" transform="translate(75.038 45.733)">
    <path id="Path_396" data-name="Path 396" d="M-1644.41,1117.413h-18.52c-1,0-1.833-1.185-1.833-2.629s.828-2.629,1.833-2.629h18.52c1.006,0,1.833,1.187,1.833,2.629S-1643.4,1117.413-1644.41,1117.413Z" transform="translate(1666.23 -1110.69)" fill="#013443"/>
    <path id="Path_397" data-name="Path 397" d="M-1643.446,1119.842h-18.518c-1.852,0-3.3-1.8-3.3-4.093s1.448-4.094,3.3-4.094h18.518c1.849,0,3.3,1.8,3.3,4.094S-1641.6,1119.842-1643.446,1119.842Zm-.056-5.265-18.462.008a1.722,1.722,0,0,0-.369,1.164,1.441,1.441,0,0,0,.428,1.172l18.421-.009a1.533,1.533,0,0,0,.4-1.163A1.462,1.462,0,0,0-1643.5,1114.577Z" transform="translate(1665.263 -1111.655)" fill="#003443"/>
  </g>
  <g id="Group_611" data-name="Group 611" transform="translate(41.038 30.688)">
    <path id="Path_398" data-name="Path 398" d="M-1648.767,1109.838v-1.852a1.465,1.465,0,0,0-.43-1.038,1.461,1.461,0,0,0-1.035-.427l-25.167.006a1.469,1.469,0,0,0-1.038.431,1.465,1.465,0,0,0-.428,1.038l0,1.846a1.463,1.463,0,0,0,1.465,1.463h4.379a10.666,10.666,0,0,1,4.75,1.336,6.428,6.428,0,0,1,2.045,2.357H-1675.4a1.467,1.467,0,0,0-1.038.432,1.458,1.458,0,0,0-.428,1.038l0,1.846a1.465,1.465,0,0,0,1.465,1.462h11.655c-.008.1-.017.2-.024.284-1.075,3.853-4.249,5.726-9.7,5.726h-.692a1.468,1.468,0,0,0-1.316.815,1.47,1.47,0,0,0,.153,1.542c12.26,15.986,14.8,19.244,15.328,19.9a1.461,1.461,0,0,0,1.146.553h4.129a1.465,1.465,0,0,0,1.316-.818,1.468,1.468,0,0,0-.155-1.544l-12.429-16.109a25.181,25.181,0,0,0,5.527-2.579c3.174-2.465,4.95-5.073,5.284-7.772h4.944a1.465,1.465,0,0,0,1.465-1.464v-1.851a1.455,1.455,0,0,0-.43-1.034,1.465,1.465,0,0,0-1.035-.43l-5.269,0-.038-.239a10.951,10.951,0,0,0-1.8-3.455h7.1A1.463,1.463,0,0,0-1648.767,1109.838Z" transform="translate(1676.865 -1106.521)" fill="#d79a2b"/>
  </g>
</svg>
