<svg xmlns="http://www.w3.org/2000/svg" width="127.146" height="101.155" viewBox="0 0 127.146 101.155">
  <g id="Gold_Loan" data-name="Gold Loan" transform="translate(0.85 1.044)">
    <g id="Group_545" data-name="Group 545" transform="translate(27.22 44.738)">
      <path id="Path_332" data-name="Path 332" d="M-2164.594,931.644a11.877,11.877,0,0,1,6.87,2.075,26.729,26.729,0,0,0,6.8,3.433,13.285,13.285,0,0,0,3.789-9.331,13.45,13.45,0,0,0-13.437-13.435A13.45,13.45,0,0,0-2174,927.821a13.444,13.444,0,0,0,1.276,5.7A21.236,21.236,0,0,1-2164.594,931.644Z" transform="translate(2174.003 -914.386)" fill="#d79a2b"/>
    </g>
    <g id="Group_557" data-name="Group 557">
      <g id="Group_547" data-name="Group 547" transform="translate(24.666)">
        <g id="Group_546" data-name="Group 546">
          <path id="Path_333" data-name="Path 333" d="M-2120.395,883.04c8.188,0,17.672,1.745,28.533,6.223,8.969,3.7,15.454,2.192,15.519,2.175.3-.07.033,0,.274.185s-.2.478-.2.785v16.62c0,.3.443.582.212.772s-.245.266-.54.207c-.073-.016-7.27-1.448-12.313.893-.98.455-2.182,1.186-3.657,2.033-6.775,3.89-16.98,9.77-24.6,4.519A25.2,25.2,0,0,0-2133,912.785a17,17,0,0,1-2.052-.064c-3.858-.482-8.768-1.51-10.273-3.669a2.588,2.588,0,0,1-.424-2.12c.9-3.859,11.99-7.4,29.007-6.629a1,1,0,0,1,.951,1.041.988.988,0,0,1-1.039.952c-18.177-.813-26.544,3.255-26.973,5.091a.592.592,0,0,0,.12.526c.8,1.144,4.286,2.256,8.889,2.832a17,17,0,0,0,1.805.046,27.388,27.388,0,0,1,17,5.018c6.583,4.538,16.166-.964,22.507-4.607,1.517-.869,3.28-1.621,4.338-2.111,4.4-2.041,8.665-1.572,11.477-1.234V893.587c-2.812.305-7.165.543-14.5-2.48-22.233-9.17-41.509-8.1-56.845,3.168-7.854,5.16-17.708,9.137-22.39,11.049-.366.15-.785.3-1.106.43,2.621,2.221,10.2,7.011,21.842.695a.98.98,0,0,1,1.338.4,1,1,0,0,1-.406,1.353c-15.758,8.556-25.242-1.984-25.337-2.092a1,1,0,0,1-.244-.735,1,1,0,0,1,.356-.687,13.4,13.4,0,0,1,2.691-1.208c4.624-1.888,14.245-5.818,21.892-10.841A49.714,49.714,0,0,1-2120.395,883.04Z" transform="translate(2176.022 -882.372)" fill="#013443" stroke="#013443" stroke-width="1.7"/>
          <path id="Path_334" data-name="Path 334" d="M-2110,920.427a12.7,12.7,0,0,1-7.355-2.2,24.1,24.1,0,0,0-14.918-4.543l-1.042,0a13.332,13.332,0,0,1-1.617-.07c-5.814-.725-9.435-2.06-10.763-3.965a3.28,3.28,0,0,1-.532-2.684c1-4.284,11.321-7.276,25.089-7.276,1.509,0,3.069.035,4.635.105a1.693,1.693,0,0,1,1.181.554,1.675,1.675,0,0,1,.44,1.223,1.7,1.7,0,0,1-1.669,1.624c-1.668-.073-3.212-.108-4.694-.108-15.433,0-21.438,3.668-21.667,4.654.575.773,3.642,1.9,8.411,2.5a11.573,11.573,0,0,0,1.253.042h.979a27.727,27.727,0,0,1,16.883,5.141,9.379,9.379,0,0,0,5.438,1.59c5.476,0,11.743-3.6,16.319-6.227,1.235-.709,2.641-1.346,3.669-1.809l.722-.331a17.811,17.811,0,0,1,7.663-1.6,31.119,31.119,0,0,1,3.408.212v-12.7c-.631.055-1.344.1-2.157.1a31.3,31.3,0,0,1-11.906-2.7c-21.9-9.033-41.1-7.983-56.162,3.085-7.763,5.1-17.524,9.085-22.213,11l-.29.118a15.876,15.876,0,0,0,9.288,2.929,22.782,22.782,0,0,0,10.808-3.058,1.725,1.725,0,0,1,2.292.683,1.7,1.7,0,0,1-.689,2.3,25.866,25.866,0,0,1-12.325,3.432,19.538,19.538,0,0,1-13.876-5.677,1.716,1.716,0,0,1-.417-1.257,1.71,1.71,0,0,1,.6-1.168,12.44,12.44,0,0,1,2.878-1.32c4.6-1.88,14.18-5.791,21.772-10.778,15.687-11.53,36.314-12.859,59.169-3.436a30.668,30.668,0,0,0,11.614,2.439,17.049,17.049,0,0,0,3.478-.3l.3-.046a.71.71,0,0,1,.672.454.933.933,0,0,1,.017,1.243l-.045,16.622c.5.7.185,1.127-.048,1.316a1.179,1.179,0,0,1-.822.385,1.484,1.484,0,0,1-.3-.034,27.845,27.845,0,0,0-4.922-.435,16.592,16.592,0,0,0-6.954,1.277c-.729.337-1.613.85-2.636,1.445l-.968.56C-2096.955,916.573-2103.667,920.427-2110,920.427Zm-22.273-8.153a25.724,25.724,0,0,1,15.718,4.792,11.171,11.171,0,0,0,6.555,1.955c5.958,0,12.483-3.745,17.248-6.481l1-.581c1.054-.612,1.964-1.14,2.75-1.506a18.01,18.01,0,0,1,7.548-1.406,30.078,30.078,0,0,1,4.706.374,1.086,1.086,0,0,1-.018-.2v-.38l-.788-.094a32.488,32.488,0,0,0-4.026-.3,16.434,16.434,0,0,0-7.07,1.469l-.736.336c-1.057.478-2.371,1.073-3.545,1.748-4.716,2.708-11.172,6.414-17.021,6.414a10.758,10.758,0,0,1-6.236-1.839,26.34,26.34,0,0,0-16.085-4.893l-.979,0a12.913,12.913,0,0,1-1.425-.053c-1.851-.23-8-1.14-9.381-3.127a1.3,1.3,0,0,1-.228-1.093c.542-2.31,8.24-5.734,23.037-5.734,1.5,0,3.07.035,4.651.105a.264.264,0,0,0,.308-.28.287.287,0,0,0-.075-.211.3.3,0,0,0-.206-.1c-1.547-.069-3.083-.1-4.572-.1-13.94,0-23.007,3.148-23.718,6.19a1.877,1.877,0,0,0,.316,1.559c1.058,1.52,4.532,2.719,9.782,3.374a12.053,12.053,0,0,0,1.442.059Zm12.083-28.337a48.831,48.831,0,0,0-29.566,9.459c-7.738,5.082-17.4,9.029-22.043,10.926a17.771,17.771,0,0,0-2.509,1.1.289.289,0,0,0-.1.2.3.3,0,0,0,.073.221,18.175,18.175,0,0,0,12.817,5.2,24.5,24.5,0,0,0,11.655-3.26.3.3,0,0,0,.123-.4.284.284,0,0,0-.386-.118,24.142,24.142,0,0,1-11.477,3.228,17.2,17.2,0,0,1-11.153-4l-.88-.747,1.066-.44c.167-.068.357-.139.553-.214s.377-.143.556-.216l.327-.132c4.648-1.9,14.324-5.849,21.944-10.854,15.4-11.322,35.122-12.456,57.5-3.231a29.945,29.945,0,0,0,11.371,2.6,24.883,24.883,0,0,0,2.785-.168l.778-.084v-.4a1.349,1.349,0,0,1,.01-.151,21.094,21.094,0,0,1-3.023.2,32.094,32.094,0,0,1-12.149-2.545C-2101.854,886.012-2111.363,883.937-2120.191,883.937Z" transform="translate(2175.82 -882.565)" fill="#013443" stroke="#013443" stroke-width="1.7"/>
        </g>
      </g>
      <g id="Group_549" data-name="Group 549" transform="translate(32.557 49.396)">
        <g id="Group_548" data-name="Group 548">
          <path id="Path_335" data-name="Path 335" d="M-2156.346,920.734l-1.34,1.32a6.5,6.5,0,0,0-4.687-1.985,5.358,5.358,0,0,0-3.875,1.5,4.977,4.977,0,0,0-1.548,3.735,4.99,4.99,0,0,0,1.5,3.535,5.448,5.448,0,0,0,4.14,1.572q3.958,0,4.976-3.439h-3.573v-1.806h5.641a10.236,10.236,0,0,1-.184,2.168,6.312,6.312,0,0,1-.752,1.784,6.458,6.458,0,0,1-1.522,1.749,6,6,0,0,1-2.035,1.1,8.918,8.918,0,0,1-2.593.331,7.178,7.178,0,0,1-5.471-2.154,6.961,6.961,0,0,1-2.042-4.926,6.707,6.707,0,0,1,2.087-4.967,6.962,6.962,0,0,1,5.061-2.051,9.3,9.3,0,0,1,3.226.536A8.854,8.854,0,0,1-2156.346,920.734Z" transform="translate(2170.41 -917.496)" fill="#013443" stroke="#013443" stroke-width="0.5"/>
          <path id="Path_336" data-name="Path 336" d="M-2161.991,933.205a7.883,7.883,0,0,1-5.98-2.375,7.676,7.676,0,0,1-2.235-5.41,7.41,7.41,0,0,1,2.3-5.469,7.667,7.667,0,0,1,5.552-2.252,10.075,10.075,0,0,1,3.469.578,9.571,9.571,0,0,1,3.23,2.154l.523.5-2.346,2.311-.494-.484a5.773,5.773,0,0,0-4.195-1.784,4.636,4.636,0,0,0-3.387,1.3,4.259,4.259,0,0,0-1.333,3.229,4.281,4.281,0,0,0,1.306,3.05,4.747,4.747,0,0,0,3.633,1.354c1.955,0,3.234-.651,3.945-2.031h-3.246V924.66h7.047v.7a10.843,10.843,0,0,1-.2,2.323,7.138,7.138,0,0,1-.834,1.987,7.174,7.174,0,0,1-1.684,1.937,6.715,6.715,0,0,1-2.274,1.231A9.657,9.657,0,0,1-2161.991,933.205Zm-.364-14.1a6.218,6.218,0,0,0-4.567,1.85,5.97,5.97,0,0,0-1.879,4.465,6.238,6.238,0,0,0,1.849,4.444,6.458,6.458,0,0,0,4.961,1.935,8.335,8.335,0,0,0,2.388-.3,5.34,5.34,0,0,0,1.8-.979,5.783,5.783,0,0,0,1.358-1.556,5.747,5.747,0,0,0,.675-1.584,7.84,7.84,0,0,0,.152-1.312h-4.223v.4h3.812l-.268.9c-.763,2.578-2.717,3.941-5.649,3.941a6.15,6.15,0,0,1-4.649-1.79,5.691,5.691,0,0,1-1.7-4.02,5.672,5.672,0,0,1,1.764-4.242,6.053,6.053,0,0,1,4.362-1.693,7.1,7.1,0,0,1,4.666,1.721l.337-.33a7.435,7.435,0,0,0-2.207-1.362A8.662,8.662,0,0,0-2162.356,919.1Z" transform="translate(2170.207 -917.699)" fill="#013443" stroke="#013443" stroke-width="0.5"/>
        </g>
      </g>
      <g id="Group_551" data-name="Group 551" transform="translate(0 61.366)">
        <g id="Group_550" data-name="Group 550">
          <path id="Path_337" data-name="Path 337" d="M-2146.851,963.2c-8.186,0-17.671-1.743-28.533-6.223-8.968-3.7-15.455-2.19-15.518-2.175a1.955,1.955,0,0,1-1.218-.184c-.24-.19-.744-.48-.744-.785v-16.62c0-.3.5-.582.729-.772a1.429,1.429,0,0,1,1.011-.207c.073.015,7.5,1.448,12.55-.893.98-.456,2.3-1.187,3.772-2.033,6.777-3.89,17.04-9.77,24.657-4.519a25.272,25.272,0,0,0,15.867,4.665,17.641,17.641,0,0,1,2.067.062c3.857.483,8.776,1.511,10.28,3.671a2.591,2.591,0,0,1,.426,2.12c-.9,3.859-11.988,7.4-29,6.629a1,1,0,0,1-.953-1.04.991.991,0,0,1,1.042-.952c18.176.813,26.544-3.255,26.975-5.091a.6.6,0,0,0-.121-.526c-.8-1.144-4.286-2.256-8.889-2.831a16.836,16.836,0,0,0-1.8-.047,27.4,27.4,0,0,1-17-5.018c-6.582-4.538-16.166.964-22.507,4.606-1.516.87-3.482,1.623-4.542,2.113-4.4,2.042-8.937,1.572-13.154,1.235v14.267a31.392,31.392,0,0,1,16.177,2.48c22.233,9.17,41.611,8.1,56.946-3.167,7.855-5.16,17.76-9.137,22.442-11.049.367-.151.81-.3,1.131-.431-2.621-2.221-10.189-7.011-21.829-.694a.975.975,0,0,1-1.332-.4,1,1,0,0,1,.412-1.352c15.757-8.555,25.243,1.985,25.336,2.094a.992.992,0,0,1,.246.735.989.989,0,0,1-.354.688,13.614,13.614,0,0,1-2.691,1.208c-4.622,1.888-14.243,5.816-21.893,10.841A49.7,49.7,0,0,1-2146.851,963.2Z" transform="translate(2193.567 -926.01)" fill="#013443" stroke="#013443" stroke-width="1.7"/>
          <path id="Path_338" data-name="Path 338" d="M-2146.647,964.108h0c-9.012,0-18.7-2.11-28.8-6.275a30.662,30.662,0,0,0-11.612-2.439,16.714,16.714,0,0,0-3.473.3,2.022,2.022,0,0,1-.461.046,2.455,2.455,0,0,1-1.356-.361l-.138-.1c-.349-.249-.875-.627-.875-1.234V937.42a1.611,1.611,0,0,1,.844-1.208l.144-.107a2.076,2.076,0,0,1,1.594-.353,29.653,29.653,0,0,0,5.063.434,16.9,16.9,0,0,0,7.052-1.277c1.061-.492,2.544-1.33,3.72-2.005,4.92-2.825,11.657-6.692,18.039-6.692a12.73,12.73,0,0,1,7.366,2.2,24.152,24.152,0,0,0,14.948,4.543l1.059,0a13.584,13.584,0,0,1,1.616.069c5.819.728,9.442,2.063,10.767,3.966a3.289,3.289,0,0,1,.538,2.683c-1,4.284-11.318,7.277-25.083,7.277-1.51,0-3.072-.037-4.64-.107a1.7,1.7,0,0,1-1.18-.551,1.683,1.683,0,0,1-.441-1.223,1.7,1.7,0,0,1,1.67-1.625c1.667.073,3.21.108,4.693.108,15.435,0,21.438-3.668,21.669-4.654-.575-.772-3.642-1.9-8.411-2.5a11.252,11.252,0,0,0-1.236-.042h-1a27.655,27.655,0,0,1-16.878-5.141,9.378,9.378,0,0,0-5.438-1.59c-5.474,0-11.742,3.6-16.319,6.226a34.486,34.486,0,0,1-3.492,1.657c-.421.182-.8.343-1.1.484a18.689,18.689,0,0,1-8.122,1.6c-1.575,0-3.124-.12-4.625-.24v12.752c.985-.066,2.024-.119,3.11-.119a31.916,31.916,0,0,1,12.631,2.7c21.909,9.035,41.2,7.984,56.264-3.083,7.694-5.054,17.447-9.033,22.133-10.947l.438-.178a15.869,15.869,0,0,0-9.271-2.922,22.755,22.755,0,0,0-10.8,3.058,1.719,1.719,0,0,1-2.285-.683,1.7,1.7,0,0,1,.692-2.3,25.852,25.852,0,0,1,12.325-3.432,19.346,19.346,0,0,1,13.88,5.681,1.708,1.708,0,0,1,.414,1.248,1.711,1.711,0,0,1-.6,1.174,12.561,12.561,0,0,1-2.876,1.319c-4.6,1.88-14.182,5.791-21.773,10.778A50.177,50.177,0,0,1-2146.647,964.108Zm-40.414-10.12a32.077,32.077,0,0,1,12.148,2.545c22.388,9.233,42.49,7.988,57.832-3.29,7.735-5.082,17.4-9.028,22.042-10.926a17.638,17.638,0,0,0,2.508-1.1.3.3,0,0,0,.105-.2.309.309,0,0,0-.074-.218,18.13,18.13,0,0,0-12.82-5.2,24.486,24.486,0,0,0-11.653,3.26.3.3,0,0,0-.128.4.274.274,0,0,0,.378.117,24.161,24.161,0,0,1,11.476-3.227,17.2,17.2,0,0,1,11.144,4l.882.748-1.071.438c-.163.066-.36.139-.558.213s-.393.143-.574.218l-.459.187c-5,2.041-14.312,5.84-21.863,10.8-15.4,11.321-35.221,12.458-57.6,3.23a30.1,30.1,0,0,0-12.1-2.6c-1.32,0-2.531.08-3.761.168l-.754.055v.292a2.921,2.921,0,0,0,.287.222l.19.142a2.111,2.111,0,0,0,.486.06A20.7,20.7,0,0,1-2187.061,953.989Zm36.811-9.134a.3.3,0,0,0-.3.28.33.33,0,0,0,.281.306c1.547.07,3.086.106,4.576.106,13.936,0,23-3.148,23.712-6.19a1.884,1.884,0,0,0-.319-1.559c-1.057-1.518-4.534-2.718-9.791-3.376a12.363,12.363,0,0,0-1.44-.058l-1.059,0a25.776,25.776,0,0,1-15.746-4.791,11.193,11.193,0,0,0-6.568-1.956c-6.006,0-12.556,3.761-17.339,6.505-1.781,1.024-2.962,1.661-3.827,2.063a18.286,18.286,0,0,1-7.645,1.406,30.716,30.716,0,0,1-5.349-.464.91.91,0,0,0-.425.068c-.051.042-.122.1-.2.152s-.194.142-.263.207v.276l1.268.1c1.553.127,3.159.257,4.763.257a17.346,17.346,0,0,0,7.531-1.469c.315-.145.707-.313,1.145-.5a33.678,33.678,0,0,0,3.342-1.583c4.717-2.708,11.174-6.414,17.021-6.414a10.76,10.76,0,0,1,6.237,1.839,26.357,26.357,0,0,0,16.08,4.892h1a12.656,12.656,0,0,1,1.409.053c1.852.231,8,1.14,9.38,3.127a1.3,1.3,0,0,1,.226,1.093c-.541,2.31-8.238,5.734-23.038,5.734-1.5,0-3.068-.035-4.651-.105Z" transform="translate(2193.364 -926.213)" fill="#013443" stroke="#013443" stroke-width="1.7"/>
        </g>
      </g>
      <g id="Group_553" data-name="Group 553" transform="translate(24.334 41.851)">
        <g id="Group_552" data-name="Group 552">
          <path id="Path_339" data-name="Path 339" d="M-2149.99,940.112a1.124,1.124,0,0,1-.313-.045,28.675,28.675,0,0,1-8.029-3.92c-3.481-2.4-7.849-2.278-13.816.409a1.1,1.1,0,0,1-1.4-.46,15.619,15.619,0,0,1-2.007-7.645,15.637,15.637,0,0,1,15.618-15.619,15.637,15.637,0,0,1,15.62,15.619,15.466,15.466,0,0,1-4.924,11.364A1.1,1.1,0,0,1-2149.99,940.112Zm-13.973-7.838a11.879,11.879,0,0,1,6.87,2.075,26.733,26.733,0,0,0,6.8,3.433,13.283,13.283,0,0,0,3.79-9.331,13.451,13.451,0,0,0-13.437-13.435,13.45,13.45,0,0,0-13.435,13.435,13.443,13.443,0,0,0,1.277,5.7A21.225,21.225,0,0,1-2163.963,932.274Z" transform="translate(2176.26 -912.13)" fill="#013443" stroke="#013443" stroke-width="1.5"/>
          <path id="Path_340" data-name="Path 340" d="M-2149.787,941.018a1.815,1.815,0,0,1-.515-.074,29.323,29.323,0,0,1-8.227-4.016c-3.313-2.28-7.37-2.121-13.129.473a1.835,1.835,0,0,1-2.3-.756,16.3,16.3,0,0,1-2.1-7.99,16.34,16.34,0,0,1,16.322-16.322,16.341,16.341,0,0,1,16.323,16.322,16.173,16.173,0,0,1-5.146,11.877A1.8,1.8,0,0,1-2149.787,941.018Zm-13.967-7.078a10.264,10.264,0,0,1,6.022,1.832,27.986,27.986,0,0,0,7.834,3.826l.111.016a.394.394,0,0,0,.268-.107,14.775,14.775,0,0,0,4.7-10.851,14.933,14.933,0,0,0-14.916-14.916,14.934,14.934,0,0,0-14.917,14.916,14.907,14.907,0,0,0,1.917,7.3.394.394,0,0,0,.5.164A20.972,20.972,0,0,1-2163.754,933.939Zm13.865,4.852-.416-.138a27.481,27.481,0,0,1-6.985-3.522c-3.709-2.555-8.364-2.618-14.334-.127l-.62.259-.285-.608a14.181,14.181,0,0,1-1.344-6,14.155,14.155,0,0,1,14.139-14.138,14.156,14.156,0,0,1,14.14,14.138,14.028,14.028,0,0,1-3.988,9.82Zm-13.872-7.017a12.559,12.559,0,0,1,7.268,2.2,26.383,26.383,0,0,0,6.2,3.2,12.627,12.627,0,0,0,3.289-8.52,12.746,12.746,0,0,0-12.734-12.732,12.746,12.746,0,0,0-12.733,12.732,12.755,12.755,0,0,0,.944,4.794A21.182,21.182,0,0,1-2163.761,931.774Z" transform="translate(2176.056 -912.333)" fill="#013443" stroke="#013443" stroke-width="1.5"/>
        </g>
      </g>
      <g id="Group_556" data-name="Group 556" transform="translate(46.158 24.872)">
        <g id="Group_554" data-name="Group 554" transform="translate(6.961 1.149)">
          <path id="Path_341" data-name="Path 341" d="M-2086.943,901.634v23.8h-27.981a15.623,15.623,0,0,0,7.851-13.542,15.562,15.562,0,0,0-.538-4.044c-.655.344-1.322.681-2,1a13.366,13.366,0,0,1,.356,3.045,13.452,13.452,0,0,1-13.436,13.436,13.451,13.451,0,0,1-13.436-13.436,13.274,13.274,0,0,1,1.815-6.711c-.8-.18-1.561-.311-2.284-.405a15.487,15.487,0,0,0-1.714,7.116,15.62,15.62,0,0,0,7.851,13.542h-24.272a15.9,15.9,0,0,1,.93,1.995h29.5a15.418,15.418,0,0,0,1.6.083,15.451,15.451,0,0,0,1.606-.083h36.136V901.921C-2085.333,901.852-2086.033,901.74-2086.943,901.634Z" transform="translate(2155.927 -900.845)" fill="#013443" stroke="#013443" stroke-width="1.5"/>
          <path id="Path_342" data-name="Path 342" d="M-2122.347,928.441a16.516,16.516,0,0,1-1.675-.086l-29.917,0-.173-.452A14.952,14.952,0,0,0-2155,926l-.583-1.045h23.176a16.379,16.379,0,0,1-6.262-12.84,16.066,16.066,0,0,1,1.795-7.438l.227-.438.487.063c.784.1,1.574.242,2.348.416l.934.212-.483.828a12.651,12.651,0,0,0-1.717,6.356,12.747,12.747,0,0,0,12.73,12.734,12.747,12.747,0,0,0,12.734-12.734,12.782,12.782,0,0,0-.336-2.885l-.13-.555.515-.241c.669-.315,1.327-.645,1.974-.985l.775-.409.229.849a16.211,16.211,0,0,1,.563,4.227,16.383,16.383,0,0,1-6.26,12.84h24.983V901.073l.784.091c.928.107,1.645.222,2.034.291l.583.1v26.8h-36.84A14.9,14.9,0,0,1-2122.347,928.441Zm-30.633-1.489h29.029a15.183,15.183,0,0,0,3.139,0l35.507,0V902.745c-.175-.027-.373-.057-.59-.086v23.705h-31.312l2.279-1.313a14.973,14.973,0,0,0,7.5-12.933,14.753,14.753,0,0,0-.311-3.007c-.239.121-.481.24-.722.357a13.912,13.912,0,0,1,.255,2.65,14.155,14.155,0,0,1-14.14,14.139,14.154,14.154,0,0,1-14.137-14.139,14.037,14.037,0,0,1,1.452-6.212c-.27-.051-.542-.1-.812-.136a14.674,14.674,0,0,0-1.418,6.348,14.975,14.975,0,0,0,7.5,12.933l2.28,1.313h-25.756C-2153.149,926.558-2153.062,926.754-2152.98,926.952Z" transform="translate(2155.582 -901.073)" fill="#013443" stroke="#013443" stroke-width="1.5"/>
        </g>
        <g id="Group_555" data-name="Group 555">
          <path id="Path_343" data-name="Path 343" d="M-2158.039,919.948v-18.9c-.678.326-1.341.6-2,.86V918.9A15.367,15.367,0,0,1-2158.039,919.948Z" transform="translate(2160.736 -899.933)" fill="#013443" stroke="#013443" stroke-width="1.5"/>
          <path id="Path_344" data-name="Path 344" d="M-2157.133,921.532l-1.071-.664a15.076,15.076,0,0,0-1.907-1l-.422-.184V901.755l.446-.174c.636-.25,1.284-.521,1.948-.841l1.006-.484Zm-1.994-2.76c.2.093.394.191.588.291v-16.6c-.2.084-.4.166-.588.246Z" transform="translate(2160.533 -900.256)" fill="#013443" stroke="#013443" stroke-width="1.5"/>
        </g>
      </g>
    </g>
  </g>
</svg>
