<?xml version="1.0" encoding="utf-8"?>
<!-- Generator: Adobe Illustrator 24.0.2, SVG Export Plug-In . SVG Version: 6.00 Build 0)  -->
<svg version="1.1" id="Layer_1" xmlns="http://www.w3.org/2000/svg" xmlns:xlink="http://www.w3.org/1999/xlink" x="0px" y="0px"
	 viewBox="0 0 200 200" style="enable-background:new 0 0 200 200;" xml:space="preserve">
<style type="text/css">
	.st0{fill:#D89B2B;}
	.st1{fill:#013443;}
	.st2{fill:#58595B;}
	.st3{fill:#FFFFFF;}
	.st4{fill-rule:evenodd;clip-rule:evenodd;fill:#D6B46D;}
	.st5{fill-rule:evenodd;clip-rule:evenodd;fill:#C5C5C4;}
	.st6{fill:#D3A23E;}
	.st7{fill:#D79A2B;}
	.st8{fill:#0D3745;stroke:#0D3745;stroke-miterlimit:10;}
	.st9{fill:#0D3745;}
	.st10{fill-rule:evenodd;clip-rule:evenodd;fill:#D79A2B;}
	.st11{fill:#013443;stroke:#003443;stroke-miterlimit:10;}
</style>
<g>
	<path class="st8" d="M96.5,155.21l-0.42-0.02l-2.73-0.21l0.22-2.71c0.27-1.74,0.4-3.27,0.4-4.69c0-16.79-13.66-30.62-30.46-30.83
		l-2.91-0.04l0.44-2.88c2.69-17.65,17.61-30.46,35.46-30.46c19.81,0,35.92,16.11,35.92,35.92C132.42,139.1,116.3,155.21,96.5,155.21
		 M66.6,111.85c18.14,1.77,32.44,17.2,32.44,35.73c0,0.8-0.03,1.61-0.1,2.47c15.88-1.25,28.42-14.56,28.42-30.75
		c0-17.01-13.84-30.85-30.85-30.85C82.36,88.44,69.96,98.33,66.6,111.85"/>
	<path class="st8" d="M128.87,129.17l-2.56-1.49l-1.07,2.76c-4.36,11.21-14.53,18.71-26.31,19.61c0.07-0.86,0.1-1.67,0.1-2.47
		c0-5.81-1.36-11.38-4.06-16.55l-1.29-2.47L91.46,130c3.18,5.11,5.04,11.12,5.04,17.58c0,2.61-0.33,5.14-0.89,7.57l0.47,0.04
		l0.43,0.02c13.88,0,26.22-7.8,32.23-20.11c8.07,5.76,12.98,15.14,12.98,25.11c0,4.55-1,8.97-2.98,13.14
		c-3.2,3.28-7.45,5.08-12.01,5.08H85.98c-1.02-1.38-1.9-2.83-2.66-4.32c-1.35,1.03-2.75,1.98-4.24,2.79
		c1.04,1.96,2.25,3.85,3.67,5.64l0.76,0.96h43.2c6.11,0,11.78-2.47,15.98-6.95l0.43-0.62c2.42-4.98,3.65-10.26,3.65-15.72
		C146.77,147.49,139.92,135.59,128.87,129.17z"/>
	<path class="st8" d="M62.65,183.5c-19.81,0-35.92-16.11-35.92-35.92c0-19.81,16.11-35.92,35.92-35.92
		c19.8,0,35.92,16.11,35.92,35.92C98.57,167.39,82.45,183.5,62.65,183.5 M62.65,116.73c-17.01,0-30.85,13.84-30.85,30.85
		s13.84,30.85,30.85,30.85c17.01,0,30.85-13.84,30.85-30.85S79.66,116.73,62.65,116.73"/>
	<path class="st8" d="M126.25,13.36H65.81c-12.06,0-21.88,9.82-21.88,21.87v84.71c1.59-1.08,3.3-2,5.07-2.8V35.23
		c0-9.27,7.54-16.82,16.81-16.82h60.44c9.27,0,16.82,7.55,16.82,16.82v126.38c0,9.27-7.54,16.82-16.82,16.82H75.4
		c-3.93,1.63-8.23,2.53-12.75,2.53c-3.2,0-6.28-0.48-9.2-1.31c3.52,2.42,7.78,3.85,12.37,3.85h60.44c12.07,0,21.88-9.82,21.88-21.88
		V35.23C148.14,23.18,138.32,13.36,126.25,13.36z"/>
	<path class="st7" d="M62.65,116.73c-17.01,0-30.85,13.84-30.85,30.85s13.84,30.85,30.85,30.85c17.01,0,30.85-13.84,30.85-30.85
		S79.66,116.73,62.65,116.73"/>
</g>
</svg>
