<svg xmlns="http://www.w3.org/2000/svg" viewBox="0 0 43.1 52.44"><defs><style>.cls-1{fill:#d79a2b;}.cls-2{fill:#0d3745;}.cls-3{fill:#fff;}</style></defs><title>Asset 2</title><g id="Layer_2" data-name="Layer 2"><g id="Layer_1-2" data-name="Layer 1"><path class="cls-1" d="M27.2,15.32l-2.27,2.39a1.21,1.21,0,0,0-.32,1L25.07,22l-3-1.45a1.22,1.22,0,0,0-1,0L18,22s0,0,0-.08l.43-3.26a1.16,1.16,0,0,0-.33-1l-2.29-2.38h0l3.27-.61A1.19,1.19,0,0,0,20,14l1.55-2.91,1.6,3a1.24,1.24,0,0,0,.85.61l3.25.57-.05.05Z"/><path class="cls-2" d="M23.66,46.13H19.44a1,1,0,1,0,0,2h4.22a1,1,0,1,0,0-2Z"/><path class="cls-3" d="M23.66,48.38H19.44a1.24,1.24,0,1,1,0-2.47h4.22a1.24,1.24,0,1,1,0,2.47Zm-4.22-2a.8.8,0,1,0,0,1.59h4.22a.8.8,0,1,0,0-1.59Z"/><path class="cls-2" d="M41.86,8.35H35.77V6.14a3,3,0,0,0-1-5.92H8.35a3,3,0,0,0-1,5.92V8.35H1.24a1,1,0,0,0-1,1v7.11A8.14,8.14,0,0,0,8.35,24.6h.86c.19.34.4.67.62,1a14.37,14.37,0,0,0,5.65,4.81,2.17,2.17,0,0,0,0,.36,3,3,0,0,0,2.3,2.95c-1.22,4.07-3.39,8.34-6,8.34H9.36a1,1,0,0,0-1,.89l-1,8.13a1,1,0,0,0,.25.8,1,1,0,0,0,.76.34h26.4a1,1,0,0,0,.76-.34,1,1,0,0,0,.25-.8l-1-8.13a1,1,0,0,0-1-.89H31.3c-1.55,0-2.87-1.63-3.7-3a24.62,24.62,0,0,1-2.26-5.34,3,3,0,0,0,2.3-2.95,2.17,2.17,0,0,0,0-.36,14.37,14.37,0,0,0,5.65-4.81c.22-.33.43-.66.62-1h.86a8.14,8.14,0,0,0,8.13-8.13V9.36a1,1,0,0,0-1-1ZM2.25,16.47V10.38H7.33v7.18a13.86,13.86,0,0,0,.92,5A6.1,6.1,0,0,1,2.25,16.47ZM33.6,50.19H9.5l.76-6.09H32.84Zm-6.3-8.13H15.8a11.9,11.9,0,0,0,1.43-1.94,27,27,0,0,0,2.62-6.31h3.4a26.93,26.93,0,0,0,2.62,6.3A11.45,11.45,0,0,0,27.3,42.06ZM24.6,31.78H18.5a1,1,0,0,1,0-2h6.1a1,1,0,0,1,0,2Zm2.12-3.19a3,3,0,0,0-2.12-.87H18.5a3,3,0,0,0-2.12.87,12.15,12.15,0,0,1-7-11V6.32H17a1,1,0,1,0,0-2H8.35a1,1,0,1,1,0-2h26.4a1,1,0,1,1,0,2H26.12a1,1,0,1,0,0,2h7.62V17.56A12.15,12.15,0,0,1,26.72,28.59ZM40.85,16.47a6.1,6.1,0,0,1-6,6.09,13.86,13.86,0,0,0,.92-5V10.38h5.08Z"/><path class="cls-3" d="M34.75,52.44H8.35A1.21,1.21,0,0,1,7.42,52a1.19,1.19,0,0,1-.3-1l1-8.12a1.25,1.25,0,0,1,1.23-1.09H11.8c2.38,0,4.48-4.07,5.68-8a3.27,3.27,0,0,1-2.25-3.1c0-.08,0-.15,0-.23a14.45,14.45,0,0,1-5.59-4.82c-.2-.28-.39-.59-.57-.9H8.35A8.36,8.36,0,0,1,0,16.47V9.36A1.25,1.25,0,0,1,1.24,8.12H7.11V6.29A3.27,3.27,0,0,1,8.35,0h26.4A3.27,3.27,0,0,1,36,6.29V8.12h5.87A1.25,1.25,0,0,1,43.1,9.36v7.11a8.36,8.36,0,0,1-8.35,8.35H34c-.18.31-.37.62-.57.9a14.54,14.54,0,0,1-5.59,4.82c0,.08,0,.15,0,.23a3.27,3.27,0,0,1-2.25,3.1A23.87,23.87,0,0,0,27.79,39c.8,1.32,2.06,2.89,3.51,2.89h2.44A1.25,1.25,0,0,1,35,42.93l1,8.12a1.19,1.19,0,0,1-.3,1A1.21,1.21,0,0,1,34.75,52.44ZM9.36,42.29a.79.79,0,0,0-.78.69l-1,8.13a.79.79,0,0,0,.19.62.8.8,0,0,0,.6.27h26.4a.8.8,0,0,0,.6-.27.79.79,0,0,0,.19-.62l-1-8.13a.78.78,0,0,0-.78-.69H31.3c-1.66,0-3-1.69-3.89-3.11a24.51,24.51,0,0,1-2.28-5.4l-.07-.22.23-.05a2.83,2.83,0,0,0,2.13-2.74,3.25,3.25,0,0,0,0-.33l0-.16.15-.07a14.07,14.07,0,0,0,5.55-4.74c.22-.31.42-.64.62-1l.07-.12h1a7.91,7.91,0,0,0,7.91-7.9V9.36a.8.8,0,0,0-.8-.79H35.55V6l.14-.05A2.82,2.82,0,0,0,34.75.44H8.35a2.82,2.82,0,0,0-.94,5.49L7.55,6V8.57H1.24a.8.8,0,0,0-.8.79v7.11a7.91,7.91,0,0,0,7.91,7.9h1l.07.12c.2.34.4.67.62,1a14.14,14.14,0,0,0,5.55,4.74l.15.07,0,.16a3.25,3.25,0,0,0,0,.33,2.83,2.83,0,0,0,2.13,2.74l.23.05-.07.22c-.6,2-2.81,8.51-6.17,8.51Zm24.49,8.12H9.25l.81-6.54H33ZM9.75,50h23.6l-.71-5.65H10.46ZM27.8,42.29H15.3l.34-.37A13.12,13.12,0,0,0,17,40a26.47,26.47,0,0,0,2.59-6.26l.05-.16h3.74l0,.16A26.25,26.25,0,0,0,26.06,40a12,12,0,0,0,1.4,1.91Zm-11.51-.45H26.81a13,13,0,0,1-1.13-1.61A26.25,26.25,0,0,1,23.09,34H20a26.73,26.73,0,0,1-2.59,6.2A13.65,13.65,0,0,1,16.29,41.84ZM24.6,32H18.5a1.24,1.24,0,0,1,0-2.47h6.1a1.24,1.24,0,0,1,0,2.47Zm-6.1-2a.8.8,0,0,0,0,1.59h6.1a.8.8,0,0,0,0-1.59Zm8.18-1.12-.11-.1a2.8,2.8,0,0,0-2-.81H18.5a2.8,2.8,0,0,0-2,.81l-.11.1-.14-.06A12.32,12.32,0,0,1,9.14,17.56V6.09H17a.79.79,0,0,0,0-1.58H8.35A1.24,1.24,0,0,1,8.35,2h26.4a1.24,1.24,0,1,1,0,2.48H26.12a.79.79,0,1,0,0,1.58H34V17.56a12.32,12.32,0,0,1-7.14,11.23ZM18.5,27.5h6.1a3.27,3.27,0,0,1,2.17.82,11.87,11.87,0,0,0,6.75-10.76v-11h-7.4a1.24,1.24,0,0,1,0-2.48h8.63a.79.79,0,1,0,0-1.58H8.35a.79.79,0,1,0,0,1.58H17a1.24,1.24,0,0,1,0,2.48H9.59v11a11.86,11.86,0,0,0,6.74,10.76A3.27,3.27,0,0,1,18.5,27.5Zm16-4.71.12-.31a14,14,0,0,0,.9-4.92v-7.4h5.52v6.31a6.35,6.35,0,0,1-6.21,6.32ZM36,10.6v7a14.36,14.36,0,0,1-.81,4.77,5.9,5.9,0,0,0,5.44-5.86V10.6ZM8.57,22.79H8.24A6.35,6.35,0,0,1,2,16.47V10.16H7.55v7.4a14,14,0,0,0,.9,4.92ZM2.48,10.6v5.87a5.9,5.9,0,0,0,5.44,5.86,14.36,14.36,0,0,1-.81-4.77v-7Z"/><path class="cls-2" d="M26.7,13.68l-2.38-.42-1.19-2.17a1.71,1.71,0,0,0-.73-.73,1.82,1.82,0,0,0-.85-.22,2,2,0,0,0-.53.08A1.78,1.78,0,0,0,20,11.1l-1.14,2.14-2.39.44a1.86,1.86,0,0,0-1,.48,1.8,1.8,0,0,0-.05,2.56l1.68,1.74-.31,2.35A1.81,1.81,0,0,0,18,22.86a1.79,1.79,0,0,0,1.38-.08l2.18-1.06,2.23,1.07a1.84,1.84,0,0,0,.77.17l.26,0a1.74,1.74,0,0,0,1.19-.7,1.83,1.83,0,0,0,.35-1.34L26,18.51l1.65-1.74a1.81,1.81,0,0,0-.94-3.09Zm-.16,1.94-2,2.07a.81.81,0,0,0-.21.66l.45,3.18-3-1.41a.8.8,0,0,0-.69,0l-2.92,1.42.1-.5.36-2.76a.74.74,0,0,0-.21-.65l-2.25-2.33.43-.06,2.8-.52a.82.82,0,0,0,.56-.41l1.5-2.83,1.57,2.87a.76.76,0,0,0,.55.4l3.19.56Z"/><path class="cls-2" d="M21.55,6.32a1,1,0,0,0,0-2h0a1,1,0,1,0,0,2Z"/><path class="cls-3" d="M21.55,6.54A1.24,1.24,0,1,1,22.79,5.3,1.25,1.25,0,0,1,21.55,6.54Zm0-2a.79.79,0,1,0,.79.79A.79.79,0,0,0,21.55,4.51Z"/></g></g></svg>