<svg xmlns="http://www.w3.org/2000/svg" width="122.54" height="124.824" viewBox="0 0 122.54 124.824">
  <g id="Sell_Old_Gold" data-name="Sell Old Gold" transform="translate(0 0)">
    <g id="Group_574" data-name="Group 574">
      <g id="Group_569" data-name="Group 569" transform="translate(3.88)">
        <g id="Group_568" data-name="Group 568">
          <path id="Path_356" data-name="Path 356" d="M-1790.509,962.344c-6.225,0-13.975-3-15.559-17.28a35.346,35.346,0,0,1-.353-5.02c0-20.854,18.345-44.179,42.893-44.179a38.514,38.514,0,0,1,9.334,1.162c11.875,3.953,12.076,18.947,12.241,30.992l.007.644a2.017,2.017,0,0,1-.136.745,27.81,27.81,0,0,1-8.159,10.8C-1758.752,948.379-1776.924,962.344-1790.509,962.344Zm26.981-62.552c-22.3,0-38.969,21.251-38.969,40.253a32.252,32.252,0,0,0,.32,4.528c1.036,9.336,4.852,13.846,11.668,13.846,12.365,0,25.951-13.816,33.563-21.122,3.371-2.879,5.848-7.338,5.848-10.438v-.249c0-11.367.818-22.789-8.267-25.816C-1761.987,900.144-1760.731,899.792-1763.528,899.792Z" transform="translate(1807.57 -894.716)" fill="#013443"/>
          <path id="Path_357" data-name="Path 357" d="M-1789.86,964.144c-6.694,0-15.025-3.176-16.7-18.3a36.326,36.326,0,0,1-.359-5.146c0-21.4,18.834-45.328,44.042-45.328a39.657,39.657,0,0,1,9.613,1.2c12.735,4.234,12.945,19.678,13.11,32.089l.01.646a3.152,3.152,0,0,1-.209,1.166,28.994,28.994,0,0,1-8.488,11.264C-1757.478,950.026-1775.9,964.144-1789.86,964.144Zm26.981-66.478c-23.891,0-41.742,22.718-41.742,43.028a33.981,33.981,0,0,0,.34,4.854c1.2,10.827,6.05,16.3,14.421,16.3,13.228,0,31.035-13.715,39.472-21.819a26.869,26.869,0,0,0,7.889-10.388,1.022,1.022,0,0,0,.053-.313l-.01-.639c-.157-11.685-.351-26.223-11.452-29.916A37.326,37.326,0,0,0-1762.878,897.666Zm-26.981,62.552c-7.405,0-11.714-5-12.81-14.87a32.986,32.986,0,0,1-.328-4.655c0-19.544,17.157-41.4,40.119-41.4a7.293,7.293,0,0,1,3.27.49,13.321,13.321,0,0,0,1.744.545c9.728,3.238,9.723,14.842,9.716,26.062v1.12c0,3.769-3.539,8.506-6.827,11.312l-.371.359C-1763.005,946.533-1777.258,960.218-1789.86,960.218Zm26.981-58.627c-21.646,0-37.82,20.643-37.82,39.1a30.56,30.56,0,0,0,.31,4.362c.977,8.787,4.321,12.862,10.528,12.862,11.677,0,25.5-13.269,32.917-20.4l.423-.4c3.483-2.974,6.071-7.085,6.071-9.608v-1.12c.006-10.884.008-21.166-8.056-23.854a14.235,14.235,0,0,1-1.924-.605A5.263,5.263,0,0,0-1762.878,901.591Z" transform="translate(1806.921 -895.366)" fill="#013443"/>
        </g>
      </g>
      <g id="Group_571" data-name="Group 571" transform="translate(52.985 42.214)">
        <g id="Group_570" data-name="Group 570">
          <path id="Path_358" data-name="Path 358" d="M-1751.939,966.277a47.762,47.762,0,0,1-11.385-1.333,1.931,1.931,0,0,1-.613-.272c-7.7-5.13-11.719-13.439-15.606-21.472a93.982,93.982,0,0,0-5.214-9.808,1.974,1.974,0,0,1-.259-1.512c.774-3.316,3.049-4.58,5.532-5.654l1.82-1.095c9.306-5.611,18.093-10.909,28.575-10.909a32.569,32.569,0,0,1,7.911,1c13.322,3.328,23.364,15.426,23.364,28.141a24.62,24.62,0,0,1-.745,6.03,2.271,2.271,0,0,1-.147.4C-1724.783,961.945-1739.856,966.277-1751.939,966.277Zm-10.1-5.059a44.175,44.175,0,0,0,10.1,1.134c10.843,0,24.28-3.716,29.624-14.126a20.824,20.824,0,0,0,.578-4.864c0-10.967-8.77-21.428-20.394-24.335a28.654,28.654,0,0,0-6.958-.881c-9.39,0-17.342,4.8-26.547,10.346l-1.942,1.168a1.94,1.94,0,0,1-.237.119c-1.931.828-2.737,1.371-3.146,2.275a105.7,105.7,0,0,1,4.947,9.435C-1772.4,948.945-1768.675,956.654-1762.04,961.218Z" transform="translate(1786.216 -913.074)" fill="#013443"/>
          <path id="Path_359" data-name="Path 359" d="M-1751.286,968.077a49.043,49.043,0,0,1-11.666-1.365,3.109,3.109,0,0,1-.973-.433c-7.966-5.31-12.055-13.759-16-21.927a92.6,92.6,0,0,0-5.145-9.686,3.126,3.126,0,0,1-.413-2.394c.906-3.873,3.675-5.361,6.2-6.45l1.682-1.024c9.456-5.7,18.373-11.075,29.168-11.075a33.757,33.757,0,0,1,8.189,1.033c13.816,3.452,24.238,16.031,24.238,29.256a26.092,26.092,0,0,1-.779,6.31,3.52,3.52,0,0,1-.235.63C-1723.341,963.579-1738.863,968.077-1751.286,968.077Zm2.847-52.054c-10.157,0-18.808,5.216-27.967,10.737l-1.833,1.1c-2.407,1.053-4.342,2.095-5.007,4.935a.812.812,0,0,0,.108.626,94.257,94.257,0,0,1,5.235,9.833c3.86,7.987,7.809,16.148,15.255,21.113a.838.838,0,0,0,.253.11,46.523,46.523,0,0,0,11.109,1.3c11.736,0,26.359-4.165,32.2-15.851a23.231,23.231,0,0,0,.773-5.915c0-12.2-9.672-23.822-22.495-27.025A31.5,31.5,0,0,0-1748.439,916.023Zm-2.847,48.129a45.314,45.314,0,0,1-10.372-1.166l-.384-.171c-6.875-4.732-10.674-12.569-14.342-20.149a105.488,105.488,0,0,0-4.9-9.357l-.319-.52.25-.557c.594-1.315,1.725-2,3.736-2.859l2.04-1.217c9.355-5.638,17.429-10.509,27.141-10.509a29.681,29.681,0,0,1,7.237.915c12.121,3.029,21.265,13.968,21.265,25.448a21.839,21.839,0,0,1-.61,5.133l-.094.257C-1726.224,960.277-1740.133,964.152-1751.286,964.152Zm-9.629-3.353a43.161,43.161,0,0,0,9.629,1.053c10.434,0,23.385-3.518,28.534-13.379a19.6,19.6,0,0,0,.516-4.461c0-10.457-8.394-20.437-19.525-23.219a27.505,27.505,0,0,0-6.678-.844c-9.07,0-16.9,4.717-25.953,10.179l-1.941,1.168a3.244,3.244,0,0,1-.4.2,7.449,7.449,0,0,0-2.217,1.235c1.662,2.783,3.1,5.765,4.622,8.906C-1770.81,948.907-1767.181,956.395-1760.915,960.8Z" transform="translate(1785.567 -913.723)" fill="#013443"/>
        </g>
      </g>
      <g id="Group_573" data-name="Group 573" transform="translate(0 70.472)">
        <g id="Group_572" data-name="Group 572">
          <path id="Path_360" data-name="Path 360" d="M-1776.835,978.565a32.561,32.561,0,0,1-7.907-1c-13.322-3.33-23.366-15.431-23.366-28.145a24.851,24.851,0,0,1,.743-6.023,2.081,2.081,0,0,1,.15-.4c6.078-12.156,21.151-16.486,33.231-16.486a47.731,47.731,0,0,1,11.384,1.332,1.984,1.984,0,0,1,.614.271c7.7,5.133,11.721,13.441,15.613,21.476a93.738,93.738,0,0,0,5.212,9.805,1.985,1.985,0,0,1,.26,1.511c-.778,3.316-3.051,4.581-5.536,5.654l-1.813,1.093C-1757.556,973.265-1766.35,978.565-1776.835,978.565Zm-26.773-34a20.936,20.936,0,0,0-.574,4.861c0,10.969,8.765,21.43,20.39,24.339a28.7,28.7,0,0,0,6.957.878c9.394,0,17.349-4.794,26.556-10.348l1.935-1.163a1.857,1.857,0,0,1,.238-.12c1.931-.828,2.737-1.371,3.144-2.275-1.781-2.9-3.323-6.08-4.947-9.435-3.611-7.456-7.34-15.164-13.974-19.729a44.072,44.072,0,0,0-10.1-1.136C-1784.824,930.434-1798.263,934.153-1803.608,944.561Z" transform="translate(1809.258 -925.361)" fill="#013443"/>
          <path id="Path_361" data-name="Path 361" d="M-1776.186,980.363a33.664,33.664,0,0,1-8.186-1.03c-13.817-3.454-24.236-16.033-24.236-29.26a26.09,26.09,0,0,1,.777-6.3,3.1,3.1,0,0,1,.242-.641c6.308-12.618,21.832-17.116,34.254-17.116a48.928,48.928,0,0,1,11.665,1.366,3.1,3.1,0,0,1,.975.432c7.95,5.3,12.042,13.743,16,21.906a93.556,93.556,0,0,0,5.152,9.709,3.161,3.161,0,0,1,.414,2.39c-.906,3.874-3.674,5.363-6.2,6.453l-1.674,1.023C-1756.455,974.984-1765.378,980.363-1776.186,980.363Zm2.85-52.053c-11.734,0-26.356,4.165-32.2,15.852a23.119,23.119,0,0,0-.771,5.91c0,12.2,9.67,23.824,22.495,27.032a31.5,31.5,0,0,0,7.629.958c10.169,0,18.827-5.217,27.992-10.743l1.812-1.093c2.41-1.053,4.343-2.1,5.011-4.933a.849.849,0,0,0-.113-.63,95.325,95.325,0,0,1-5.275-9.923c-3.831-7.909-7.782-16.065-15.215-21.021a.793.793,0,0,0-.253-.11A46.529,46.529,0,0,0-1773.335,928.31Zm-2.85,48.13a29.808,29.808,0,0,1-7.235-.915c-12.124-3.029-21.265-13.973-21.265-25.452a22.187,22.187,0,0,1,.607-5.126l.1-.26c5.586-10.877,19.495-14.752,30.646-14.752a45.3,45.3,0,0,1,10.371,1.169l.383.17c6.887,4.739,10.686,12.586,14.355,20.177,1.619,3.341,3.143,6.487,4.893,9.329l.318.52-.25.557c-.593,1.317-1.726,2-3.74,2.858l-2.031,1.214C-1758.391,971.567-1766.468,976.44-1776.186,976.44Zm-25.687-30.827a19.913,19.913,0,0,0-.512,4.459c0,10.457,8.393,20.439,19.522,23.224a27.606,27.606,0,0,0,6.677.844c9.077,0,16.9-4.719,25.964-10.182l1.936-1.164a3.139,3.139,0,0,1,.374-.193,7.492,7.492,0,0,0,2.24-1.244c-1.649-2.767-3.092-5.749-4.615-8.893-3.519-7.266-7.145-14.763-13.421-19.174a43.05,43.05,0,0,0-9.627-1.056C-1783.765,932.234-1796.717,935.752-1801.872,945.613Z" transform="translate(1808.608 -926.011)" fill="#013443"/>
        </g>
      </g>
    </g>
    <g id="Group_575" data-name="Group 575" transform="translate(58.243 47.287)">
      <path id="Path_362" data-name="Path 362" d="M-1764.362,959a44.208,44.208,0,0,0,10.1,1.134c10.843,0,24.28-3.717,29.624-14.127a20.847,20.847,0,0,0,.578-4.864c0-10.967-8.77-21.428-20.394-24.335a28.66,28.66,0,0,0-6.958-.881c-9.391,0-17.342,4.8-26.547,10.346l-1.942,1.168a1.851,1.851,0,0,1-.236.12c-1.932.828-2.737,1.37-3.146,2.274a105.782,105.782,0,0,1,4.946,9.436C-1774.723,946.728-1771,954.437-1764.362,959Z" transform="translate(1783.281 -915.929)" fill="#d79a2b"/>
    </g>
  </g>
</svg>
