<svg xmlns="http://www.w3.org/2000/svg" viewBox="0 0 55.26 55.19"><defs><style>.cls-1{fill:#0d3745;}.cls-2{fill:#fff;}.cls-3{fill:#d79a2b;}</style></defs><title>2Asset 4</title><g id="Layer_2" data-name="Layer 2"><g id="Layer_1-2" data-name="Layer 1"><path class="cls-1" d="M53,7.7H49.19a.4.4,0,0,0-.4.41v.81a.4.4,0,0,0,.4.4h3.14a.45.45,0,0,1,.29.12l.91.91a.42.42,0,0,1,.12.28V39.75a.42.42,0,0,1-.41.41H9.31a.41.41,0,0,0-.41.4v.81a.41.41,0,0,0,.41.4H53.24a.42.42,0,0,1,.41.41V43.7a.45.45,0,0,1-.12.29l-.91.9a.4.4,0,0,1-.29.12H2.93a.36.36,0,0,1-.28-.12L1.74,44a.4.4,0,0,1-.12-.29V42.18a.41.41,0,0,1,.4-.41H6.88a.41.41,0,0,0,.41-.4v-.81a.41.41,0,0,0-.41-.4H2a.41.41,0,0,1-.4-.41V10.63a.38.38,0,0,1,.12-.28l.91-.91a.4.4,0,0,1,.28-.12H46.76a.4.4,0,0,0,.41-.4V8.11a.41.41,0,0,0-.41-.41H2.26A.45.45,0,0,0,2,7.82L.12,9.68A.38.38,0,0,0,0,10V44.37a.4.4,0,0,0,.12.29L2,46.51a.4.4,0,0,0,.29.12H22.49a.41.41,0,0,1,.37.58l-.69,1.46a.39.39,0,0,1-.37.24H14.25a.41.41,0,0,0-.32.15l-2.57,3.3a.38.38,0,0,0-.09.25v2.17a.41.41,0,0,0,.41.41h6.47a.41.41,0,0,0,.41-.41V54a.4.4,0,0,0-.41-.4H13.3a.41.41,0,0,1-.41-.41h0a.36.36,0,0,1,.09-.24l1.74-2.24a.41.41,0,0,1,.32-.15H40.22a.39.39,0,0,1,.32.15l1.75,2.24a.41.41,0,0,1,.08.24h0a.4.4,0,0,1-.4.41H20.58a.4.4,0,0,0-.4.4v.81a.4.4,0,0,0,.4.41h23a.4.4,0,0,0,.4-.41V52.61a.44.44,0,0,0-.08-.25l-2.58-3.3a.39.39,0,0,0-.32-.15H33.46a.4.4,0,0,1-.37-.24l-.68-1.46a.41.41,0,0,1,.37-.58H53a.4.4,0,0,0,.29-.12l1.86-1.85a.44.44,0,0,0,.11-.29V10a.41.41,0,0,0-.11-.28L53.29,7.82A.45.45,0,0,0,53,7.7ZM30.78,48.91h-6.3a.4.4,0,0,1-.36-.58l.68-1.46a.4.4,0,0,1,.37-.24H30.1a.39.39,0,0,1,.36.24l.69,1.46A.41.41,0,0,1,30.78,48.91Z"/><path class="cls-1" d="M4.67,12.35H9.86v.87H4.67Z"/><path class="cls-1" d="M4.67,14H9.86v.87H4.67Z"/><path class="cls-1" d="M4.67,15.57H9.86v.87H4.67Z"/><path class="cls-1" d="M27.63,19.85a7.68,7.68,0,0,0,7.69-7.68V7.68A7.69,7.69,0,0,0,20,7.68v4.49A7.68,7.68,0,0,0,27.63,19.85Zm-5.77-7.68V7.68a5.77,5.77,0,0,1,11.54,0h0v4.49a5.77,5.77,0,0,1-11.54,0Z"/><path class="cls-1" d="M43.8,25.37a12.92,12.92,0,0,0-1.71-1.82,8.77,8.77,0,0,0-5.49-1.93H33.77a1.05,1.05,0,0,1-1.06-1.05,1,1,0,0,0-1.86-.33l-1.13,3.14a2.21,2.21,0,0,1-4.16,0l-1.08-3.13a1,1,0,0,0-1.22-.6,1.05,1.05,0,0,0-.36.23l0,0a1,1,0,0,0-.28.68,1,1,0,0,1-1.05,1.05H18.66a8.79,8.79,0,0,0-5.49,1.93,19.4,19.4,0,0,0-1.71,1.82,8.78,8.78,0,0,0-1.6,5.05V41.8H45.41V30.42A8.72,8.72,0,0,0,43.8,25.37Zm-32,14.56V30.42a6.88,6.88,0,0,1,6.88-6.88h2.88a3,3,0,0,0,1.84-.64L23.75,24a4.12,4.12,0,0,0,7.78.05l.4-1.13a3,3,0,0,0,1.74.63H36.6a6.89,6.89,0,0,1,6.89,6.88v9.51Z"/><path class="cls-2" d="M21.86,12.17V7.68a5.77,5.77,0,0,1,11.54,0h0v4.49a5.77,5.77,0,0,1-11.54,0Z"/><path class="cls-3" d="M11.78,39.93V30.42a6.88,6.88,0,0,1,6.88-6.88h2.88a3,3,0,0,0,1.84-.64L23.75,24a4.12,4.12,0,0,0,7.78.05l.4-1.13a3,3,0,0,0,1.74.63H36.6a6.89,6.89,0,0,1,6.89,6.88v9.51Z"/></g></g></svg>